<?xml version="1.0" standalone="no"?>
<!DOCTYPE svg PUBLIC "-//W3C//DTD SVG 20010904//EN"
 "http://www.w3.org/TR/2001/REC-SVG-20010904/DTD/svg10.dtd">
<svg version="1.0" xmlns="http://www.w3.org/2000/svg"
 width="803.000000pt" height="803.000000pt" viewBox="0 0 803.000000 803.000000"
 preserveAspectRatio="xMidYMid meet" style="background:#000000">
<metadata>
Created by potrace 1.13, written by Peter Selinger 2001-2015
</metadata>
<g transform="translate(230.000000,340.000000) scale(0.130000,-0.130000)"
fill="#000000" stroke="none">
<path fill="#ffffff" d="M2372 1142 c-25 -16 -95 -157 -107 -213 -3 -19 -10 -45 -15 -59 -4
-14 -16 -51 -25 -82 -9 -32 -23 -58 -30 -58 -7 0 -18 -7 -25 -15 -7 -8 -31
-24 -54 -35 -22 -11 -61 -33 -86 -50 -25 -16 -52 -32 -60 -36 -8 -3 -24 -10
-35 -16 -11 -6 -42 -23 -68 -36 -27 -14 -53 -34 -58 -44 -5 -10 -18 -18 -28
-18 -10 0 -26 -9 -36 -20 -10 -11 -30 -20 -45 -20 -22 0 -30 7 -40 33 -18 45
-70 97 -97 97 -12 0 -38 -14 -56 -30 -19 -17 -39 -30 -44 -30 -13 0 -31 -42
-26 -57 7 -21 30 -15 51 12 15 19 29 25 57 25 20 0 34 -4 31 -9 -3 -5 1 -26
10 -47 16 -36 19 -61 23 -181 1 -42 2 -43 34 -43 34 0 40 10 61 112 3 15 21
37 38 50 18 12 46 37 61 55 16 18 37 33 47 33 11 0 34 13 52 30 18 16 48 35
68 41 55 18 111 48 155 84 22 17 46 30 53 28 8 -3 12 -31 12 -92 0 -94 22
-181 46 -181 8 0 14 -7 14 -16 0 -24 26 -45 104 -83 53 -26 85 -35 126 -35 42
-1 55 2 55 14 0 15 -14 23 -98 59 -48 21 -108 79 -135 129 -8 15 -18 56 -24
92 -20 136 -7 200 48 226 19 9 34 20 34 24 0 4 13 22 29 39 56 60 98 173 88
236 -12 70 -63 113 -105 87z m48 -119 c-1 -32 -24 -100 -43 -126 -51 -72 -96
-81 -63 -14 9 19 16 47 16 62 0 29 48 85 74 85 9 0 16 -3 16 -7z"/>
<path fill="#ffffff" d="M80 1121 c-10 -20 -18 -150 -25 -391 -1 -74 -6 -146 -9 -160 -15 -60
-33 -296 -25 -312 6 -10 21 -18 34 -18 20 0 26 7 36 42 6 24 22 64 35 90 13
27 24 56 24 65 0 10 16 49 35 87 19 37 35 73 35 78 0 15 43 68 51 63 4 -3 10
-24 14 -48 4 -23 16 -62 27 -87 27 -58 35 -80 43 -107 3 -11 19 -36 35 -55 16
-18 30 -36 30 -40 0 -10 100 -59 114 -56 6 1 35 -6 65 -16 48 -17 54 -17 69
-3 22 23 4 40 -67 61 -46 14 -69 28 -103 64 -43 47 -78 109 -78 139 0 9 -8 25
-17 35 -10 11 -18 37 -18 61 -2 44 -28 106 -51 120 -8 4 -14 12 -14 18 0 28
129 169 155 169 6 0 82 54 113 80 19 16 122 41 143 35 9 -3 20 -1 23 4 12 19
35 -1 42 -35 7 -40 26 -44 42 -9 19 42 14 72 -15 95 -25 20 -36 21 -94 16 -81
-7 -119 -20 -186 -63 -29 -18 -55 -33 -59 -33 -13 0 -128 -103 -154 -138 -15
-20 -44 -54 -64 -74 -20 -20 -36 -44 -36 -53 0 -8 -5 -15 -10 -15 -6 0 -13 -8
-17 -17 -3 -10 -22 -52 -42 -93 -19 -41 -36 -81 -37 -88 -2 -8 -5 -16 -8 -20
-15 -14 -16 12 -5 89 23 165 28 517 7 530 -20 13 -26 11 -38 -10z"/>
<path fill="#ffffff" d="M1093 761 c-24 -9 -48 -22 -55 -29 -7 -7 -18 -12 -25 -12 -20 0 -152
-140 -169 -180 -9 -19 -20 -43 -25 -52 -29 -55 -46 -129 -42 -179 7 -97 48
-127 121 -89 23 12 45 19 50 16 13 -8 132 113 144 146 9 24 35 44 45 34 2 -2
0 -33 -5 -68 -7 -53 -5 -69 7 -89 27 -40 50 -59 81 -66 41 -8 53 22 19 50 -37
30 -46 63 -37 135 4 36 5 69 2 74 -3 5 -1 15 5 21 5 7 13 31 16 53 14 82 -60
113 -91 38 -8 -18 -15 -42 -17 -52 -1 -9 -10 -26 -20 -37 -34 -39 -95 -114
-98 -122 -2 -5 -28 -28 -56 -52 -51 -43 -53 -43 -78 -27 -25 16 -29 34 -25
101 2 35 26 89 72 161 60 93 98 126 195 170 42 18 81 3 85 -35 2 -18 10 -27
26 -29 32 -5 43 31 24 79 -11 30 -22 39 -46 44 -17 4 -38 8 -46 10 -8 1 -34
-5 -57 -14z"/>
</g>
<g transform="translate(-320.000000,560.000000) scale(0.130000,-0.130000)"
fill="#000000" stroke="none">
<path fill="#ffffff" d="M3530 1269 c-48 -20 -86 -57 -98 -98 -25 -80 -3 -326 29 -326 11 0
14 24 14 140 0 152 7 181 50 209 41 27 76 8 109 -59 32 -66 43 -142 39 -266
-3 -120 -5 -123 -49 -116 -38 6 -79 -5 -106 -30 -25 -22 -7 -52 53 -88 l49
-29 -6 -61 c-8 -66 -53 -213 -84 -275 -11 -22 -20 -44 -20 -50 0 -6 -11 -27
-24 -48 -13 -20 -27 -61 -31 -89 l-7 -53 29 0 c33 0 41 12 68 101 9 31 23 65
30 75 8 11 15 29 15 42 0 13 14 52 30 87 17 35 30 74 30 87 0 13 7 34 15 48 7
14 21 40 29 58 15 32 15 32 90 32 72 0 126 -14 126 -32 0 -4 14 -8 30 -8 20 0
30 5 30 15 0 26 -72 88 -143 124 -37 19 -67 38 -67 42 0 5 -7 9 -16 9 -13 0
-14 11 -9 78 9 113 8 260 -3 313 -15 74 -62 143 -115 167 -33 14 -53 14 -87 1z"/>

<path fill="#ffffff" d="M6635 903 c-11 -3 -32 -13 -46 -23 -71 -51 -139 -310 -94 -360 13
-15 22 -16 63 -6 27 6 60 19 75 29 14 9 29 17 31 17 3 0 50 27 105 60 55 33
103 60 108 60 4 0 23 15 43 34 21 20 50 36 73 40 34 6 38 5 47 -20 6 -16 8
-62 4 -114 -6 -84 -6 -88 16 -100 24 -13 105 -6 115 11 4 5 21 16 38 23 18 8
48 29 67 48 33 33 79 67 155 113 19 12 42 28 52 37 10 9 47 25 82 34 l64 18
22 -29 c33 -40 35 -78 9 -133 -31 -66 -90 -109 -160 -117 -13 -1 -31 -8 -39
-15 -14 -12 -14 -15 2 -32 36 -40 135 -6 215 74 21 21 38 44 38 52 0 7 7 19
15 26 8 7 15 19 15 28 0 8 7 23 15 32 8 9 18 38 21 64 6 44 5 49 -27 82 -28
29 -40 34 -78 34 -141 -1 -312 -88 -482 -245 -20 -19 -50 -37 -65 -41 l-27 -7
7 49 c19 148 19 147 -6 184 -21 30 -29 35 -59 32 -48 -4 -158 -51 -197 -84
-18 -15 -38 -28 -44 -28 -7 0 -28 -11 -47 -24 -130 -86 -181 -116 -194 -116
-9 0 -16 12 -19 31 -6 37 29 95 75 127 86 59 110 109 69 145 -19 18 -23 18
-57 10z"/>
<path fill="#ffffff" d="M5823 808 c-6 -7 -16 -44 -23 -83 -6 -38 -15 -77 -19 -85 -4 -8 -9
-39 -10 -67 -1 -29 -16 -112 -32 -185 -43 -188 -43 -182 -25 -197 23 -20 42
-7 54 36 6 21 22 78 36 126 13 48 29 93 34 100 5 7 20 40 32 75 19 53 34 73
89 123 71 64 100 73 120 35 11 -19 11 -32 1 -62 -18 -59 -42 -114 -51 -114 -9
0 -39 -58 -39 -77 0 -25 49 -15 64 15 8 15 24 36 36 47 31 28 60 89 82 170
l18 70 -40 38 c-38 36 -82 49 -95 27 -3 -5 -15 -10 -26 -10 -36 0 -133 -85
-151 -132 -4 -10 -12 -18 -18 -18 -7 0 -8 30 -4 90 5 76 4 90 -9 90 -8 0 -19
-6 -24 -12z"/>
<path fill="#ffffff" d="M4463 893 c-65 -36 -126 -79 -147 -101 -12 -13 -42 -47 -68 -75 -40
-44 -48 -59 -54 -106 -6 -49 -4 -56 16 -73 41 -33 183 -15 228 29 8 7 17 11
22 8 4 -3 13 2 20 10 18 22 45 18 117 -16 57 -27 73 -31 122 -26 68 7 110 22
117 42 4 8 15 15 25 15 22 0 114 45 124 60 3 5 13 10 22 10 9 0 24 6 32 14 14
11 33 22 123 67 10 5 37 9 61 9 55 0 81 -24 72 -66 -19 -86 -53 -116 -86 -75
-30 36 -59 22 -59 -28 0 -27 38 -71 61 -71 33 0 96 38 123 73 67 88 76 225 16
260 -37 22 -58 21 -132 -4 -60 -20 -81 -30 -183 -89 -144 -83 -260 -134 -306
-134 -79 1 -133 59 -104 114 23 45 19 106 -9 137 -31 34 -106 41 -153 16z
m111 -59 c26 -10 21 -63 -8 -74 -13 -5 -28 -21 -34 -37 -19 -50 -45 -70 -154
-118 -38 -17 -102 -24 -114 -13 -11 12 6 64 29 86 28 26 57 57 78 80 9 9 28
25 42 36 15 10 35 25 44 32 19 14 89 19 117 8z"/>

</g>
</svg>
