<!DOCTYPE svg PUBLIC "-//W3C//DTD SVG 20010904//EN" "http://www.w3.org/TR/2001/REC-SVG-20010904/DTD/svg10.dtd">
<svg version="1.0" xmlns="http://www.w3.org/2000/svg" width="150px" height="150px" viewBox="0 0 1500 1500" preserveAspectRatio="xMidYMid meet">
<g id="layer1" fill="#404041" stroke="none">
 <path d="M543 1383 c4 -3 10 -3 14 0 3 4 0 7 -7 7 -7 0 -10 -3 -7 -7z"/>
 <path d="M703 1373 c4 -3 10 -3 14 0 3 4 0 7 -7 7 -7 0 -10 -3 -7 -7z"/>
 <path d="M628 1353 c-28 -7 -21 -21 7 -15 14 2 25 8 25 13 0 9 -4 10 -32 2z"/>
 <path d="M1090 1291 c0 -9 41 -23 48 -16 2 2 1 8 -3 14 -8 13 -45 15 -45 2z"/>
 <path d="M640 1220 c0 -5 5 -10 10 -10 6 0 10 5 10 10 0 6 -4 10 -10 10 -5 0 -10 -4 -10 -10z"/>
 <path d="M280 1190 c0 -5 5 -10 10 -10 6 0 10 5 10 10 0 6 -4 10 -10 10 -5 0 -10 -4 -10 -10z"/>
 <path d="M1220 1180 c0 -5 5 -10 10 -10 6 0 10 5 10 10 0 6 -4 10 -10 10 -5 0 -10 -4 -10 -10z"/>
 <path d="M1083 1163 c4 -3 10 -3 14 0 3 4 0 7 -7 7 -7 0 -10 -3 -7 -7z"/>
 <path d="M1277 1128 c-6 -21 -2 -36 7 -27 10 11 16 49 8 49 -5 0 -12 -10 -15 -22z"/>
 <path d="M463 1103 c4 -3 10 -3 14 0 3 4 0 7 -7 7 -7 0 -10 -3 -7 -7z"/>
 <path d="M410 960 c0 -5 5 -10 10 -10 6 0 10 5 10 10 0 6 -4 10 -10 10 -5 0 -10 -4 -10 -10z"/>
 <path d="M1280 880 c0 -5 5 -10 10 -10 6 0 10 5 10 10 0 6 -4 10 -10 10 -5 0 -10 -4 -10 -10z"/>
 <path d="M1283 833 c4 -3 10 -3 14 0 3 4 0 7 -7 7 -7 0 -10 -3 -7 -7z"/>
 <path d="M1195 670 c-3 -5 1 -10 9 -10 9 0 16 5 16 10 0 6 -4 10 -9 10 -6 0 -13 -4 -16 -10z"/>
 <path d="M1250 660 c0 -5 5 -10 10 -10 6 0 10 5 10 10 0 6 -4 10 -10 10 -5 0 -10 -4 -10 -10z"/>
 <path d="M230 540 c0 -5 5 -10 10 -10 6 0 10 5 10 10 0 6 -4 10 -10 10 -5 0 -10 -4 -10 -10z"/>
 <path d="M1323 533 c4 -3 10 -3 14 0 3 4 0 7 -7 7 -7 0 -10 -3 -7 -7z"/>
 <path d="M1210 490 c0 -5 4 -10 9 -10 6 0 13 5 16 10 3 6 -1 10 -9 10 -9 0 -16 -4 -16 -10z"/>
 <path d="M740 360 c0 -5 5 -10 10 -10 6 0 10 5 10 10 0 6 -4 10 -10 10 -5 0 -10 -4 -10 -10z"/>
 <path d="M340 250 c0 -5 5 -10 10 -10 6 0 10 5 10 10 0 6 -4 10 -10 10 -5 0 -10 -4 -10 -10z"/>
 <path d="M990 180 c0 -5 5 -10 10 -10 6 0 10 5 10 10 0 6 -4 10 -10 10 -5 0 -10 -4 -10 -10z"/>
 <path d="M583 123 c4 -3 10 -3 14 0 3 4 0 7 -7 7 -7 0 -10 -3 -7 -7z"/>
 </g>
<g id="layer2" fill="#404141" stroke="none">
 <path d="M845 1440 c-3 -5 1 -10 9 -10 9 0 16 5 16 10 0 6 -4 10 -9 10 -6 0 -13 -4 -16 -10z"/>
 <path d="M620 1430 c0 -5 5 -10 10 -10 6 0 10 5 10 10 0 6 -4 10 -10 10 -5 0 -10 -4 -10 -10z"/>
 <path d="M583 1413 c4 -3 10 -3 14 0 3 4 0 7 -7 7 -7 0 -10 -3 -7 -7z"/>
 <path d="M773 1403 c4 -3 10 -3 14 0 3 4 0 7 -7 7 -7 0 -10 -3 -7 -7z"/>
 <path d="M317 1363 c-11 -10 -8 -20 7 -26 10 -4 12 0 9 14 -6 21 -7 22 -16 12z"/>
 <path d="M350 1360 c0 -5 5 -10 10 -10 6 0 10 5 10 10 0 6 -4 10 -10 10 -5 0 -10 -4 -10 -10z"/>
 <path d="M1023 1353 c4 -3 10 -3 14 0 3 4 0 7 -7 7 -7 0 -10 -3 -7 -7z"/>
 <path d="M493 1343 c4 -3 10 -3 14 0 3 4 0 7 -7 7 -7 0 -10 -3 -7 -7z"/>
 <path d="M380 1310 c0 -7 3 -10 7 -7 3 4 3 10 0 14 -4 3 -7 0 -7 -7z"/>
 <path d="M443 1303 c4 -3 10 -3 14 0 3 4 0 7 -7 7 -7 0 -10 -3 -7 -7z"/>
 <path d="M1146 1294 c-9 -22 3 -32 14 -14 12 19 12 30 1 30 -5 0 -12 -7 -15 -16z"/>
 <path d="M955 1270 c3 -5 10 -10 16 -10 5 0 9 5 9 10 0 6 -7 10 -16 10 -8 0 -12 -4 -9 -10z"/>
 <path d="M1004 1245 c11 -8 27 -15 35 -15 13 1 12 4 -3 15 -11 8 -27 15 -35 15 -13 -1 -12 -4 3 -15z"/>
 <path d="M540 1220 c0 -5 4 -10 9 -10 6 0 13 5 16 10 3 6 -1 10 -9 10 -9 0 -16 -4 -16 -10z"/>
 <path d="M623 1223 c4 -3 10 -3 14 0 3 4 0 7 -7 7 -7 0 -10 -3 -7 -7z"/>
 <path d="M1010 1200 c0 -5 5 -10 10 -10 6 0 10 5 10 10 0 6 -4 10 -10 10 -5 0 -10 -4 -10 -10z"/>
 <path d="M250 1145 c0 -17 9 -19 28 -6 11 7 10 10 -3 15 -23 9 -25 8 -25 -9z"/>
 <path d="M473 1153 c4 -3 10 -3 14 0 3 4 0 7 -7 7 -7 0 -10 -3 -7 -7z"/>
 <path d="M1103 1153 c4 -3 10 -3 14 0 3 4 0 7 -7 7 -7 0 -10 -3 -7 -7z"/>
 <path d="M1188 1108 c12 -12 24 -19 28 -15 10 10 -16 37 -34 37 -13 0 -12 -4 6 -22z"/>
 <path d="M1231 1044 c0 -11 3 -14 6 -6 3 7 2 16 -1 19 -3 4 -6 -2 -5 -13z"/>
 <path d="M1184 1034 c3 -9 6 -18 6 -20 0 -2 7 -4 15 -4 20 0 19 26 -1 34 -24 9 -27 8 -20 -10z"/>
 <path d="M370 960 c0 -5 5 -10 10 -10 6 0 10 5 10 10 0 6 -4 10 -10 10 -5 0 -10 -4 -10 -10z"/>
 <path d="M1250 951 c0 -6 5 -13 10 -16 6 -3 10 1 10 9 0 9 -4 16 -10 16 -5 0 -10 -4 -10 -9z"/>
 <path d="M1370 946 c0 -8 5 -18 10 -21 6 -3 10 1 10 9 0 8 -4 18 -10 21 -5 3 -10 -1 -10 -9z"/>
 <path d="M110 919 c0 -8 7 -24 15 -35 11 -15 14 -16 15 -3 0 8 -7 24 -15 35 -11 15 -14 16 -15 3z"/>
 <path d="M380 904 c0 -8 5 -12 10 -9 6 3 10 10 10 16 0 5 -4 9 -10 9 -5 0 -10 -7 -10 -16z"/>
 <path d="M1242 848 c6 -18 28 -21 28 -4 0 9 -7 16 -16 16 -9 0 -14 -5 -12 -12z"/>
 <path d="M341 824 c0 -11 3 -14 6 -6 3 7 2 16 -1 19 -3 4 -6 -2 -5 -13z"/>
 <path d="M380 770 c0 -7 3 -10 7 -7 3 4 3 10 0 14 -4 3 -7 0 -7 -7z"/>
 <path d="M1270 771 c0 -6 5 -13 10 -16 6 -3 10 1 10 9 0 9 -4 16 -10 16 -5 0 -10 -4 -10 -9z"/>
 <path d="M200 726 c0 -9 5 -16 10 -16 6 0 10 4 10 9 0 6 -4 13 -10 16 -5 3 -10 -1 -10 -9z"/>
 <path d="M1276 716 c-3 -13 -9 -31 -12 -40 -3 -9 -2 -16 4 -16 5 0 13 11 16 24 3 13 9 31 12 40 3 9 2 16 -4 16 -5 0 -13 -11 -16 -24z"/>
 <path d="M1330 684 c0 -8 5 -12 10 -9 6 3 10 10 10 16 0 5 -4 9 -10 9 -5 0 -10 -7 -10 -16z"/>
 <path d="M370 670 c0 -5 5 -10 10 -10 6 0 10 5 10 10 0 6 -4 10 -10 10 -5 0 -10 -4 -10 -10z"/>
 <path d="M420 661 c0 -10 30 -24 37 -17 3 3 2 9 -2 15 -8 13 -35 15 -35 2z"/>
 <path d="M100 620 c0 -5 5 -10 10 -10 6 0 10 5 10 10 0 6 -4 10 -10 10 -5 0 -10 -4 -10 -10z"/>
 <path d="M1150 621 c0 -6 5 -13 10 -16 6 -3 10 1 10 9 0 9 -4 16 -10 16 -5 0 -10 -4 -10 -9z"/>
 <path d="M460 580 c0 -7 3 -10 7 -7 3 4 3 10 0 14 -4 3 -7 0 -7 -7z"/>
 <path d="M175 570 c3 -5 10 -10 16 -10 5 0 9 5 9 10 0 6 -7 10 -16 10 -8 0 -12 -4 -9 -10z"/>
 <path d="M1180 553 c0 -12 5 -25 10 -28 13 -8 13 15 0 35 -8 12 -10 11 -10 -7z"/>
 <path d="M470 540 c0 -7 3 -10 7 -7 3 4 3 10 0 14 -4 3 -7 0 -7 -7z"/>
 <path d="M1303 523 c4 -3 10 -3 14 0 3 4 0 7 -7 7 -7 0 -10 -3 -7 -7z"/>
 <path d="M510 490 c0 -11 5 -20 10 -20 6 0 10 9 10 20 0 11 -4 20 -10 20 -5 0 -10 -9 -10 -20z"/>
 <path d="M1340 470 c0 -5 7 -10 16 -10 8 0 12 5 9 10 -3 6 -10 10 -16 10 -5 0 -9 -4 -9 -10z"/>
 <path d="M1250 460 c0 -5 5 -10 10 -10 6 0 10 5 10 10 0 6 -4 10 -10 10 -5 0 -10 -4 -10 -10z"/>
 <path d="M1065 440 c-3 -5 1 -10 9 -10 9 0 16 5 16 10 0 6 -4 10 -9 10 -6 0 -13 -4 -16 -10z"/>
 <path d="M1203 443 c4 -3 10 -3 14 0 3 4 0 7 -7 7 -7 0 -10 -3 -7 -7z"/>
 <path d="M1350 424 c0 -8 5 -12 10 -9 6 3 10 10 10 16 0 5 -4 9 -10 9 -5 0 -10 -7 -10 -16z"/>
 <path d="M1013 413 c4 -3 10 -3 14 0 3 4 0 7 -7 7 -7 0 -10 -3 -7 -7z"/>
 <path d="M640 396 c0 -9 5 -16 10 -16 6 0 10 4 10 9 0 6 -4 13 -10 16 -5 3 -10 -1 -10 -9z"/>
 <path d="M951 394 c0 -11 3 -14 6 -6 3 7 2 16 -1 19 -3 4 -6 -2 -5 -13z"/>
 <path d="M1303 393 c4 -3 10 -3 14 0 3 4 0 7 -7 7 -7 0 -10 -3 -7 -7z"/>
 <path d="M910 360 c0 -7 3 -10 7 -7 3 4 3 10 0 14 -4 3 -7 0 -7 -7z"/>
 <path d="M303 353 c4 -3 10 -3 14 0 3 4 0 7 -7 7 -7 0 -10 -3 -7 -7z"/>
 <path d="M253 333 c4 -3 10 -3 14 0 3 4 0 7 -7 7 -7 0 -10 -3 -7 -7z"/>
 <path d="M1153 323 c4 -3 10 -3 14 0 3 4 0 7 -7 7 -7 0 -10 -3 -7 -7z"/>
 <path d="M1105 300 c-3 -5 1 -10 9 -10 9 0 16 5 16 10 0 6 -4 10 -9 10 -6 0 -13 -4 -16 -10z"/>
 <path d="M353 293 c4 -3 10 -3 14 0 3 4 0 7 -7 7 -7 0 -10 -3 -7 -7z"/>
 <path d="M420 280 c0 -5 5 -10 10 -10 6 0 10 5 10 10 0 6 -4 10 -10 10 -5 0 -10 -4 -10 -10z"/>
 <path d="M363 253 c4 -3 10 -3 14 0 3 4 0 7 -7 7 -7 0 -10 -3 -7 -7z"/>
 <path d="M1145 249 c-4 -6 -5 -13 -2 -16 7 -7 27 6 27 18 0 12 -17 12 -25 -2z"/>
 <path d="M293 233 c4 -3 10 -3 14 0 3 4 0 7 -7 7 -7 0 -10 -3 -7 -7z"/>
 <path d="M1083 223 c4 -3 10 -3 14 0 3 4 0 7 -7 7 -7 0 -10 -3 -7 -7z"/>
 <path d="M398 213 c6 -2 18 -2 25 0 6 3 1 5 -13 5 -14 0 -19 -2 -12 -5z"/>
 <path d="M835 178 c-47 -24 -50 -26 -43 -33 5 -6 118 44 118 51 0 10 -39 1 -75 -18z"/>
 <path d="M713 173 c4 -3 10 -3 14 0 3 4 0 7 -7 7 -7 0 -10 -3 -7 -7z"/>
 <path d="M650 150 c0 -5 4 -10 9 -10 6 0 13 5 16 10 3 6 -1 10 -9 10 -9 0 -16 -4 -16 -10z"/>
 <path d="M920 140 c0 -5 5 -10 10 -10 6 0 10 5 10 10 0 6 -4 10 -10 10 -5 0 -10 -4 -10 -10z"/>
 <path d="M826 121 c-4 -7 -5 -15 -2 -18 9 -9 19 4 14 18 -4 11 -6 11 -12 0z"/>
 <path d="M870 110 c0 -5 5 -10 10 -10 6 0 10 5 10 10 0 6 -4 10 -10 10 -5 0 -10 -4 -10 -10z"/>
 <path d="M790 70 c0 -5 7 -10 15 -10 8 0 15 5 15 10 0 6 -7 10 -15 10 -8 0 -15 -4 -15 -10z"/>
 </g>
<g id="layer3" fill="#4b4d4f" stroke="none">
 <path d="M590 1421 c0 -5 9 -11 20 -14 13 -3 20 0 20 9 0 8 -9 14 -20 14 -11 0 -20 -4 -20 -9z"/>
 <path d="M795 1420 c-3 -5 1 -10 9 -10 9 0 16 5 16 10 0 6 -4 10 -9 10 -6 0 -13 -4 -16 -10z"/>
 <path d="M560 1400 c0 -5 5 -10 10 -10 6 0 10 5 10 10 0 6 -4 10 -10 10 -5 0 -10 -4 -10 -10z"/>
 <path d="M840 1390 c0 -11 6 -20 14 -20 9 0 12 7 9 20 -3 11 -9 20 -14 20 -5 0 -9 -9 -9 -20z"/>
 <path d="M960 1400 c0 -5 -7 -7 -15 -4 -17 7 -19 -4 -5 -26 8 -12 13 -13 29 -3 17 11 19 10 15 -2 -7 -17 4 -19 26 -5 12 7 12 12 -4 29 -20 22 -46 28 -46 11z"/>
 <path d="M725 1390 c-3 -5 1 -10 9 -10 8 0 18 5 21 10 3 6 -1 10 -9 10 -8 0 -18 -4 -21 -10z"/>
 <path d="M350 1376 c0 -9 5 -16 10 -16 6 0 10 4 10 9 0 6 -4 13 -10 16 -5 3 -10 -1 -10 -9z"/>
 <path d="M675 1370 c-3 -5 1 -10 9 -10 9 0 16 5 16 10 0 6 -4 10 -9 10 -6 0 -13 -4 -16 -10z"/>
 <path d="M510 1360 c0 -5 5 -10 10 -10 6 0 10 5 10 10 0 6 -4 10 -10 10 -5 0 -10 -4 -10 -10z"/>
 <path d="M610 1360 c0 -7 3 -10 7 -7 3 4 3 10 0 14 -4 3 -7 0 -7 -7z"/>
 <path d="M903 1363 c4 -3 10 -3 14 0 3 4 0 7 -7 7 -7 0 -10 -3 -7 -7z"/>
 <path d="M330 1340 c0 -5 5 -10 10 -10 6 0 10 5 10 10 0 6 -4 10 -10 10 -5 0 -10 -4 -10 -10z"/>
 <path d="M370 1340 c0 -7 3 -10 7 -7 3 4 3 10 0 14 -4 3 -7 0 -7 -7z"/>
 <path d="M1133 1330 c4 -17 2 -20 -14 -15 -13 4 -19 2 -19 -9 0 -9 9 -16 20 -16 13 0 20 -7 20 -20 0 -11 4 -20 9 -20 5 0 8 19 6 43 -3 57 -3 57 -16 57 -6 0 -9 -9 -6 -20z"/>
 <path d="M310 1320 c0 -7 3 -10 7 -7 3 4 3 10 0 14 -4 3 -7 0 -7 -7z"/>
 <path d="M460 1320 c0 -5 5 -10 10 -10 6 0 10 5 10 10 0 6 -4 10 -10 10 -5 0 -10 -4 -10 -10z"/>
 <path d="M390 1284 c0 -8 9 -14 20 -14 11 0 20 4 20 9 0 5 -9 11 -20 14 -13 3 -20 0 -20 -9z"/>
 <path d="M700 1280 c-35 -27 -17 -37 19 -10 17 12 31 23 31 26 0 10 -27 2 -50 -16z"/>
 <path d="M905 1290 c3 -5 10 -10 16 -10 5 0 9 5 9 10 0 6 -7 10 -16 10 -8 0 -12 -4 -9 -10z"/>
 <path d="M300 1270 c0 -7 3 -10 7 -7 3 4 3 10 0 14 -4 3 -7 0 -7 -7z"/>
 <path d="M1180 1256 c0 -9 5 -16 10 -16 6 0 10 4 10 9 0 6 -4 13 -10 16 -5 3 -10 -1 -10 -9z"/>
 <path d="M570 1240 c0 -5 4 -10 9 -10 6 0 13 5 16 10 3 6 -1 10 -9 10 -9 0 -16 -4 -16 -10z"/>
 <path d="M290 1220 c0 -7 3 -10 7 -7 3 4 3 10 0 14 -4 3 -7 0 -7 -7z"/>
 <path d="M600 1220 c0 -5 5 -10 10 -10 6 0 10 5 10 10 0 6 -4 10 -10 10 -5 0 -10 -4 -10 -10z"/>
 <path d="M1013 1223 c-15 -6 -17 -23 -3 -23 6 0 19 -9 30 -20 21 -21 40 -26 40 -11 0 5 -10 13 -22 17 -20 6 -20 8 -5 19 9 7 17 15 17 19 0 7 -39 7 -57 -1z"/>
 <path d="M1210 1206 c0 -9 5 -16 10 -16 6 0 10 4 10 9 0 6 -4 13 -10 16 -5 3 -10 -1 -10 -9z"/>
 <path d="M470 1170 c0 -5 7 -10 15 -10 8 0 15 5 15 10 0 6 -7 10 -15 10 -8 0 -15 -4 -15 -10z"/>
 <path d="M276 1161 c-4 -7 -5 -15 -2 -18 9 -9 19 4 14 18 -4 11 -6 11 -12 0z"/>
 <path d="M1240 1155 c0 -8 2 -15 4 -15 2 0 11 -3 20 -6 23 -9 20 13 -4 26 -16 9 -20 8 -20 -5z"/>
 <path d="M1290 1156 c0 -8 5 -18 10 -21 6 -3 10 3 10 14 0 12 -4 21 -10 21 -5 0 -10 -6 -10 -14z"/>
 <path d="M1125 1140 c3 -5 10 -10 16 -10 5 0 9 5 9 10 0 6 -7 10 -16 10 -8 0 -12 -4 -9 -10z"/>
 <path d="M230 1130 c0 -5 5 -10 10 -10 6 0 10 5 10 10 0 6 -4 10 -10 10 -5 0 -10 -4 -10 -10z"/>
 <path d="M435 1089 c-4 -6 -5 -13 -2 -16 7 -7 27 6 27 18 0 12 -17 12 -25 -2z"/>
 <path d="M1310 1090 c0 -7 3 -10 7 -7 3 4 3 10 0 14 -4 3 -7 0 -7 -7z"/>
 <path d="M1211 1040 c2 -54 13 -73 22 -39 7 27 -3 89 -14 89 -5 0 -9 -23 -8 -50z"/>
 <path d="M1320 1040 c0 -7 3 -10 7 -7 3 4 3 10 0 14 -4 3 -7 0 -7 -7z"/>
 <path d="M380 1024 c0 -8 5 -12 10 -9 6 3 10 10 10 16 0 5 -4 9 -10 9 -5 0 -10 -7 -10 -16z"/>
 <path d="M1330 1000 c0 -7 3 -10 7 -7 3 4 3 10 0 14 -4 3 -7 0 -7 -7z"/>
 <path d="M367 980 c-3 -11 -1 -20 4 -20 5 0 9 9 9 20 0 11 -2 20 -4 20 -2 0 -6 -9 -9 -20z"/>
 <path d="M101 961 c-27 -17 -2 -30 29 -14 17 8 30 16 30 19 0 7 -45 4 -59 -5z"/>
 <path d="M1342 954 c1 -9 9 -19 16 -22 9 -3 13 2 10 14 -1 9 -9 19 -16 22 -9 3 -13 -2 -10 -14z"/>
 <path d="M183 953 c4 -3 10 -3 14 0 3 4 0 7 -7 7 -7 0 -10 -3 -7 -7z"/>
 <path d="M400 934 c0 -8 5 -12 10 -9 6 3 10 10 10 16 0 5 -4 9 -10 9 -5 0 -10 -7 -10 -16z"/>
 <path d="M1381 904 c0 -11 3 -14 6 -6 3 7 2 16 -1 19 -3 4 -6 -2 -5 -13z"/>
 <path d="M350 854 c0 -8 5 -12 10 -9 6 3 10 10 10 16 0 5 -4 9 -10 9 -5 0 -10 -7 -10 -16z"/>
 <path d="M1274 845 c5 -20 3 -23 -10 -18 -12 4 -15 2 -12 -8 4 -11 35 -15 45 -6 6 6 -11 57 -19 57 -6 0 -7 -11 -4 -25z"/>
 <path d="M1370 819 c0 -5 7 -9 17 -9 14 0 14 -2 -2 -20 -24 -26 -11 -39 15 -15 29 26 26 53 -5 53 -14 0 -25 -4 -25 -9z"/>
 <path d="M160 805 c0 -14 32 -66 37 -61 8 7 -17 66 -28 66 -5 0 -9 -2 -9 -5z"/>
 <path d="M342 793 c2 -10 11 -19 21 -21 23 -5 21 10 -4 26 -18 12 -20 11 -17 -5z"/>
 <path d="M381 744 c0 -11 3 -14 6 -6 3 7 2 16 -1 19 -3 4 -6 -2 -5 -13z"/>
 <path d="M1340 710 c0 -7 3 -10 7 -7 3 4 3 10 0 14 -4 3 -7 0 -7 -7z"/>
 <path d="M183 693 c4 -3 10 -3 14 0 3 4 0 7 -7 7 -7 0 -10 -3 -7 -7z"/>
 <path d="M100 676 c-38 -14 -51 -40 -24 -50 22 -8 33 2 14 14 -11 7 -8 11 15 20 17 5 39 14 50 19 l20 10 -20 0 c-11 0 -36 -6 -55 -13z"/>
 <path d="M414 680 c-21 -8 -40 -28 -33 -34 2 -2 14 -7 27 -10 16 -6 22 -3 22 8 0 9 5 16 10 16 6 0 10 7 10 15 0 17 -5 18 -36 5z"/>
 <path d="M1320 640 c0 -7 3 -10 7 -7 3 4 3 10 0 14 -4 3 -7 0 -7 -7z"/>
 <path d="M450 630 c0 -7 3 -10 7 -7 3 4 3 10 0 14 -4 3 -7 0 -7 -7z"/>
 <path d="M1348 613 c6 -2 18 -2 25 0 6 3 1 5 -13 5 -14 0 -19 -2 -12 -5z"/>
 <path d="M125 600 c3 -5 10 -10 16 -10 5 0 9 5 9 10 0 6 -7 10 -16 10 -8 0 -12 -4 -9 -10z"/>
 <path d="M1160 591 c0 -6 5 -13 10 -16 6 -3 10 1 10 9 0 9 -4 16 -10 16 -5 0 -10 -4 -10 -9z"/>
 <path d="M1365 559 c-4 -6 -5 -13 -2 -16 7 -7 27 6 27 18 0 12 -17 12 -25 -2z"/>
 <path d="M205 550 c3 -5 10 -10 16 -10 5 0 9 5 9 10 0 6 -7 10 -16 10 -8 0 -12 -4 -9 -10z"/>
 <path d="M530 531 c0 -6 5 -13 10 -16 8 -5 7 -11 0 -20 -13 -16 -5 -35 14 -35 16 0 18 49 4 68 -12 14 -28 16 -28 3z"/>
 <path d="M240 520 c0 -5 5 -10 10 -10 6 0 10 5 10 10 0 6 -4 10 -10 10 -5 0 -10 -4 -10 -10z"/>
 <path d="M480 506 c0 -9 5 -16 10 -16 6 0 10 4 10 9 0 6 -4 13 -10 16 -5 3 -10 -1 -10 -9z"/>
 <path d="M1263 513 c-14 -5 -18 -23 -5 -23 5 0 17 7 28 15 14 11 15 14 4 14 -8 0 -21 -3 -27 -6z"/>
 <path d="M178 503 c7 -3 16 -2 19 1 4 3 -2 6 -13 5 -11 0 -14 -3 -6 -6z"/>
 <path d="M1200 500 c0 -7 3 -10 7 -7 3 4 3 10 0 14 -4 3 -7 0 -7 -7z"/>
 <path d="M132 488 c6 -18 28 -21 28 -4 0 9 -7 16 -16 16 -9 0 -14 -5 -12 -12z"/>
 <path d="M1290 480 c0 -5 5 -10 10 -10 6 0 10 5 10 10 0 6 -4 10 -10 10 -5 0 -10 -4 -10 -10z"/>
 <path d="M580 470 c0 -5 5 -10 10 -10 6 0 10 5 10 10 0 6 -4 10 -10 10 -5 0 -10 -4 -10 -10z"/>
 <path d="M1233 453 c4 -3 10 -3 14 0 3 4 0 7 -7 7 -7 0 -10 -3 -7 -7z"/>
 <path d="M610 436 c0 -9 5 -16 10 -16 6 0 10 4 10 9 0 6 -4 13 -10 16 -5 3 -10 -1 -10 -9z"/>
 <path d="M1035 430 c-3 -5 1 -10 9 -10 9 0 16 5 16 10 0 6 -4 10 -9 10 -6 0 -13 -4 -16 -10z"/>
 <path d="M950 418 c0 -18 27 -44 37 -34 4 4 -3 16 -15 29 -18 17 -22 18 -22 5z"/>
 <path d="M1320 400 c0 -5 4 -10 9 -10 6 0 13 5 16 10 3 6 -1 10 -9 10 -9 0 -16 -4 -16 -10z"/>
 <path d="M930 385 c0 -8 5 -15 10 -15 6 0 10 7 10 15 0 8 -4 15 -10 15 -5 0 -10 -7 -10 -15z"/>
 <path d="M1270 380 c0 -5 4 -10 9 -10 6 0 13 5 16 10 3 6 -1 10 -9 10 -9 0 -16 -4 -16 -10z"/>
 <path d="M325 370 c-3 -5 1 -10 9 -10 9 0 16 5 16 10 0 6 -4 10 -9 10 -6 0 -13 -4 -16 -10z"/>
 <path d="M708 363 c7 -3 16 -2 19 1 4 3 -2 6 -13 5 -11 0 -14 -3 -6 -6z"/>
 <path d="M880 355 c0 -8 4 -15 9 -15 5 0 11 7 15 15 3 9 0 15 -9 15 -8 0 -15 -7 -15 -15z"/>
 <path d="M275 350 c-3 -5 1 -10 9 -10 9 0 16 5 16 10 0 6 -4 10 -9 10 -6 0 -13 -4 -16 -10z"/>
 <path d="M773 353 c4 -3 10 -3 14 0 3 4 0 7 -7 7 -7 0 -10 -3 -7 -7z"/>
 <path d="M1201 334 c-51 -28 -56 -32 -49 -39 7 -7 108 46 108 56 0 13 -10 10 -59 -17z"/>
 <path d="M833 343 c4 -3 10 -3 14 0 3 4 0 7 -7 7 -7 0 -10 -3 -7 -7z"/>
 <path d="M1140 340 c0 -5 9 -10 20 -10 11 0 20 5 20 10 0 6 -9 10 -20 10 -11 0 -20 -4 -20 -10z"/>
 <path d="M1045 329 c-12 -19 5 -23 22 -6 16 16 16 17 1 17 -9 0 -20 -5 -23 -11z"/>
 <path d="M205 320 c-3 -5 1 -10 9 -10 9 0 16 5 16 10 0 6 -4 10 -9 10 -6 0 -13 -4 -16 -10z"/>
 <path d="M263 303 c4 -3 10 -3 14 0 3 4 0 7 -7 7 -7 0 -10 -3 -7 -7z"/>
 <path d="M1060 300 c0 -5 7 -10 16 -10 8 0 12 5 9 10 -3 6 -10 10 -16 10 -5 0 -9 -4 -9 -10z"/>
 <path d="M333 293 c4 -3 10 -3 14 0 3 4 0 7 -7 7 -7 0 -10 -3 -7 -7z"/>
 <path d="M396 274 c-4 -11 -1 -14 11 -12 9 2 18 9 21 16 6 18 -25 15 -32 -4z"/>
 <path d="M1120 270 c0 -5 5 -10 10 -10 6 0 10 5 10 10 0 6 -4 10 -10 10 -5 0 -10 -4 -10 -10z"/>
 <path d="M1160 250 c0 -5 9 -10 20 -10 11 0 20 5 20 10 0 6 -9 10 -20 10 -11 0 -20 -4 -20 -10z"/>
 <path d="M323 243 c4 -3 10 -3 14 0 3 4 0 7 -7 7 -7 0 -10 -3 -7 -7z"/>
 <path d="M1123 233 c4 -3 10 -3 14 0 3 4 0 7 -7 7 -7 0 -10 -3 -7 -7z"/>
 <path d="M250 220 c0 -5 7 -10 15 -10 8 0 15 5 15 10 0 6 -7 10 -15 10 -8 0 -15 -4 -15 -10z"/>
 <path d="M338 213 c12 -2 30 -2 40 0 9 3 -1 5 -23 4 -22 0 -30 -2 -17 -4z"/>
 <path d="M573 203 c4 -3 10 -3 14 0 3 4 0 7 -7 7 -7 0 -10 -3 -7 -7z"/>
 <path d="M610 190 c0 -5 5 -10 10 -10 6 0 10 5 10 10 0 6 -4 10 -10 10 -5 0 -10 -4 -10 -10z"/>
 <path d="M880 190 c0 -5 5 -10 10 -10 6 0 10 5 10 10 0 6 -4 10 -10 10 -5 0 -10 -4 -10 -10z"/>
 <path d="M1010 190 c0 -5 4 -10 9 -10 6 0 13 5 16 10 3 6 -1 10 -9 10 -9 0 -16 -4 -16 -10z"/>
 <path d="M730 181 c0 -5 11 -8 25 -7 33 1 33 16 0 16 -14 0 -25 -4 -25 -9z"/>
 <path d="M693 163 c4 -3 10 -3 14 0 3 4 0 7 -7 7 -7 0 -10 -3 -7 -7z"/>
 <path d="M953 163 c-14 -5 -18 -23 -5 -23 5 0 17 7 28 15 14 11 15 14 4 14 -8 0 -21 -3 -27 -6z"/>
 <path d="M760 150 c0 -5 7 -10 16 -10 8 0 12 5 9 10 -3 6 -10 10 -16 10 -5 0 -9 -4 -9 -10z"/>
 <path d="M560 135 c0 -8 -9 -15 -20 -15 -11 0 -20 -5 -20 -11 0 -6 12 -9 27 -7 18 2 27 10 29 26 2 12 -1 22 -6 22 -6 0 -10 -7 -10 -15z"/>
 <path d="M600 130 c0 -5 4 -10 9 -10 6 0 13 5 16 10 3 6 -1 10 -9 10 -9 0 -16 -4 -16 -10z"/>
 <path d="M890 120 c0 -5 4 -10 9 -10 6 0 13 5 16 10 3 6 -1 10 -9 10 -9 0 -16 -4 -16 -10z"/>
 <path d="M797 94 c-13 -14 -7 -21 18 -21 14 0 28 3 31 8 3 5 1 9 -5 9 -5 0 -16 2 -23 5 -8 3 -17 2 -21 -1z"/>
 </g>
<g id="layer4" fill="#fdfefe" stroke="none">
 <path d="M800 1213 c1 -10 7 -46 14 -80 7 -34 11 -65 8 -68 -3 -3 -72 -5 -154 -5 l-148 0 0 -28 c0 -15 6 -50 13 -77 11 -42 42 -85 201 -272 l187 -223 70 0 c56 0 71 3 76 17 4 9 -12 113 -36 230 -23 117 -39 218 -36 223 3 6 22 10 41 10 38 0 38 0 23 69 -10 49 -11 50 -51 53 -46 3 -47 6 -68 111 l-11 57 -65 0 c-54 0 -64 -3 -64 -17z m47 -285 c8 -11 63 -264 63 -291 0 -5 -4 -7 -9 -5 -13 5 -251 288 -251 299 0 14 186 11 197 -3z"/>
 <path d="M1063 333 c-19 -7 -16 -21 8 -33 25 -14 79 4 79 26 0 14 -59 19 -87 7z"/>
 </g>
<g id="layer5" fill="#3d3c3c" stroke="none">
 <path d="M805 1421 c-18 -16 -186 -84 -192 -77 -4 3 0 17 7 31 18 33 3 50 -31 36 -13 -5 -58 -37 -99 -70 -41 -34 -79 -61 -83 -61 -5 0 -16 18 -24 40 -15 37 -33 54 -33 29 0 -6 -9 -8 -21 -4 -19 6 -21 4 -16 -14 3 -11 1 -24 -5 -27 -5 -3 -8 -15 -5 -25 3 -10 1 -22 -5 -25 -5 -3 -7 -17 -4 -29 3 -13 1 -27 -4 -30 -6 -4 -10 -16 -8 -27 3 -22 -36 -45 -47 -28 -17 27 -25 1 -27 -87 l-3 -98 -35 3 c-19 1 -41 -2 -49 -7 -17 -11 -5 -47 55 -162 19 -37 34 -72 34 -77 0 -6 -31 -21 -70 -33 -38 -13 -70 -26 -70 -30 0 -7 69 -55 120 -82 19 -10 42 -25 50 -33 12 -12 12 -14 -6 -14 -11 0 -24 -3 -28 -7 -4 -5 -17 -8 -29 -8 -12 0 -23 -7 -25 -15 -2 -10 29 -31 95 -64 108 -53 109 -60 17 -87 -51 -15 -53 -33 -3 -37 19 -2 48 -5 64 -6 17 -2 38 -6 48 -11 9 -4 24 -5 32 -2 8 4 17 3 19 -2 6 -10 -91 -41 -127 -41 -17 0 -27 -5 -27 -14 0 -12 16 -15 78 -14 42 1 118 -1 167 -5 50 -3 94 -6 98 -7 4 0 -10 -19 -32 -42 -23 -23 -39 -44 -36 -46 4 -5 78 21 141 49 23 10 54 21 69 25 24 6 27 5 20 -15 -9 -29 12 -28 78 5 l52 25 -32 -26 c-18 -15 -33 -32 -33 -40 0 -7 -7 -18 -15 -25 -8 -7 -15 -17 -15 -22 0 -16 45 0 92 31 57 38 179 101 198 101 8 0 24 7 35 16 15 11 17 17 7 23 -10 6 -5 15 20 36 18 15 44 32 58 38 14 6 40 24 58 39 18 15 39 28 46 28 7 0 23 11 36 25 l23 24 -24 21 c-27 23 -71 20 -100 -6 -13 -11 -38 -16 -91 -16 -49 0 -87 -6 -115 -19 -24 -11 -47 -19 -53 -19 -5 0 -10 -5 -10 -11 0 -5 -5 -7 -10 -4 -6 4 -17 1 -25 -5 -12 -10 -16 -9 -21 4 -8 21 -27 9 -21 -14 7 -29 -51 -44 -95 -25 -10 4 -25 4 -34 1 -9 -4 -23 -1 -30 5 -8 6 -20 9 -28 6 -27 -11 -72 22 -116 83 -43 60 -67 77 -55 41 5 -16 2 -18 -17 -13 -37 9 -55 34 -62 84 -4 26 -11 50 -17 53 -5 4 -9 15 -9 26 0 21 -16 26 -23 7 -4 -10 -8 -10 -15 0 -5 8 -13 14 -18 15 -12 3 -13 99 -1 115 14 18 1 27 -17 13 -36 -30 -48 20 -16 62 11 14 20 28 20 32 0 4 14 27 30 52 36 52 32 65 -12 40 l-30 -17 6 26 c7 28 94 124 112 124 11 0 54 42 54 53 0 4 -8 7 -17 7 -13 0 -8 10 19 35 38 35 58 44 58 25 0 -22 73 3 99 32 l25 30 110 -4 c98 -3 118 -7 166 -32 69 -36 67 -34 45 -50 -17 -12 -13 -16 47 -45 36 -17 70 -31 75 -31 17 0 53 -46 63 -79 8 -29 7 -31 -11 -26 -23 7 -25 -7 -4 -25 8 -7 15 -17 15 -22 0 -5 8 -17 18 -26 21 -19 48 -77 32 -67 -15 9 -12 -13 6 -40 10 -15 12 -25 5 -25 -6 0 -11 5 -11 10 0 6 -5 10 -11 10 -12 0 -3 -54 14 -81 8 -12 7 -29 -2 -58 -11 -37 -13 -40 -31 -28 -16 9 -24 9 -40 -1 -11 -6 -26 -12 -34 -12 -25 0 -29 -19 -11 -56 9 -19 22 -52 29 -72 7 -20 21 -39 30 -40 10 -2 43 9 74 24 31 15 64 30 72 34 27 13 24 47 -7 62 -24 12 -28 19 -25 48 4 51 27 94 68 130 37 32 39 54 2 31 -25 -16 -48 0 -30 22 7 8 11 31 10 53 0 21 3 49 7 62 4 13 3 22 -3 22 -5 0 -12 -9 -15 -20 -3 -11 -10 -20 -15 -20 -13 0 -22 27 -27 80 -3 23 -8 46 -12 53 -4 7 -7 20 -8 31 0 17 -10 25 -54 46 -14 6 -59 77 -81 128 -14 32 -34 28 -26 -5 l6 -28 -16 23 c-9 12 -21 22 -26 22 -5 0 -21 14 -35 30 -13 17 -30 30 -36 30 -6 0 -20 9 -32 20 -19 18 -65 19 -65 1 0 -9 -48 -7 -57 2 -3 4 -15 7 -25 7 -15 0 -17 5 -12 25 5 21 3 25 -18 25 -13 0 -28 -4 -33 -9z m-305 -245 c0 -3 -5 -8 -12 -12 -7 -4 -8 -3 -4 4 7 12 16 16 16 8z m665 -847 c-4 -5 -11 -9 -17 -9 -6 0 -20 -7 -29 -16 -17 -15 -22 -15 -50 -2 -38 19 -26 30 41 38 49 7 63 4 55 -11z"/>
 </g>
<g id="layer6" fill="#bbddee" stroke="none">
 <path d="M0 750 l0 -750 750 0 750 0 0 750 0 750 -750 0 -750 0 0 -750z m855 661 c-7 -31 -6 -31 58 -45 16 -4 27 -2 27 4 0 7 9 9 22 5 17 -6 20 -4 14 10 -3 10 17 -2 46 -27 60 -51 124 -72 115 -38 -3 11 -4 20 -2 20 1 0 26 -41 54 -90 53 -91 86 -124 101 -100 11 17 15 6 35 -97 18 -87 20 -93 43 -93 25 0 25 0 18 -71 l-6 -71 26 5 c25 4 25 4 -10 -32 -21 -21 -42 -57 -51 -86 -20 -68 -19 -85 5 -85 17 0 40 -32 40 -55 0 -7 -152 -75 -167 -75 -7 0 -17 10 -22 23 -5 12 -18 46 -30 74 l-21 53 39 19 c21 11 47 17 59 14 17 -4 23 2 32 34 10 33 9 45 -9 86 -25 58 -25 57 -5 57 10 0 14 6 11 15 -4 8 -2 17 3 20 16 10 12 21 -36 84 -39 52 -44 63 -34 81 17 31 2 60 -38 77 -129 53 -165 74 -154 85 20 20 14 28 -40 53 -45 21 -68 25 -154 25 -100 0 -100 0 -141 -35 -39 -33 -83 -47 -83 -25 0 17 -20 11 -66 -20 -47 -33 -58 -55 -21 -45 14 4 -7 -21 -55 -67 -43 -40 -78 -79 -78 -85 0 -6 -3 -19 -7 -29 -5 -15 -2 -16 26 -11 36 7 36 7 -20 -81 -17 -28 -29 -60 -29 -80 0 -30 3 -34 21 -29 20 6 21 3 14 -60 -7 -71 -9 -69 51 -46 6 2 18 -33 30 -84 18 -81 21 -87 49 -95 17 -4 32 -3 35 3 5 7 51 -44 106 -120 2 -2 205 -38 232 -41 1 0 2 7 2 15 0 8 7 15 15 15 8 0 15 7 15 15 0 9 6 12 15 9 8 -4 15 -2 15 4 0 6 8 8 19 5 10 -2 38 5 62 17 32 17 63 23 119 24 53 2 89 9 122 24 45 21 49 22 73 6 14 -9 25 -18 25 -21 0 -20 -29 -47 -65 -63 -24 -10 -49 -28 -55 -39 -6 -12 -18 -21 -27 -21 -24 0 -83 -40 -83 -56 0 -8 10 -14 26 -14 42 0 19 -16 -43 -30 -37 -8 -103 -39 -184 -86 -70 -41 -131 -74 -134 -74 -4 0 9 20 29 44 33 40 45 66 31 66 -3 0 -23 -9 -45 -20 -49 -25 -50 -25 -50 5 0 14 -2 25 -3 25 -2 0 -55 -20 -118 -45 -63 -25 -116 -45 -118 -45 -3 0 14 16 37 36 23 19 42 41 42 48 0 15 -103 26 -252 26 -54 0 -98 4 -98 9 0 4 30 16 68 26 37 10 71 20 76 23 16 9 -18 20 -84 27 -36 4 -74 11 -85 15 -19 8 -19 8 5 18 78 32 100 43 100 53 0 6 -45 31 -100 57 -55 26 -100 50 -100 54 0 4 17 10 38 13 53 9 72 15 72 23 0 4 -41 31 -90 61 -50 29 -90 57 -90 62 0 5 31 18 70 30 38 11 70 25 70 29 0 5 -25 61 -55 126 -30 64 -53 119 -51 122 8 7 49 7 79 -1 l27 -7 0 94 0 94 34 6 c32 6 35 10 46 59 6 29 14 72 17 95 4 27 12 46 22 50 9 3 19 10 23 16 4 6 16 -11 27 -37 11 -26 25 -47 32 -47 6 0 50 31 98 68 115 91 122 94 114 37 -3 -25 -4 -45 -2 -45 2 0 56 22 119 50 63 27 116 50 118 50 2 0 1 -13 -3 -29z m63 -194 c6 -7 16 -35 22 -62 5 -28 12 -60 15 -72 4 -17 14 -22 42 -25 41 -3 58 -25 65 -83 3 -28 1 -30 -34 -33 -31 -3 -38 -7 -38 -25 0 -12 18 -114 41 -226 47 -234 47 -231 -41 -231 -55 0 -44 -11 -278 268 -156 185 -172 208 -182 257 -6 30 -9 59 -5 65 4 6 65 10 156 10 113 0 149 3 149 13 -1 6 -7 41 -15 77 -7 35 -11 68 -9 72 8 13 101 9 112 -5z"/>
 <path d="M642 924 c4 -23 240 -303 256 -303 18 -1 15 26 -15 181 l-27 138 -109 0 c-95 0 -108 -2 -105 -16z"/>
 </g>

</svg>