<!DOCTYPE svg PUBLIC "-//W3C//DTD SVG 20010904//EN" "http://www.w3.org/TR/2001/REC-SVG-20010904/DTD/svg10.dtd">
<svg version="1.0" xmlns="http://www.w3.org/2000/svg" width="460px" height="460px" viewBox="-400 -400 5400 5400" preserveAspectRatio="xMidYMid meet" style="background:#c4122f">
<g id="layer1" fill="#ffffff" stroke="none">
 <path d="M1595 4510 c-3 -5 -14 -10 -24 -10 -17 0 -131 -106 -131 -122 0 -4 -6 -8 -13 -8 -7 0 -21 -16 -31 -34 -10 -19 -29 -45 -42 -57 -13 -12 -24 -27 -24 -33 0 -6 -16 -31 -35 -55 -19 -24 -35 -50 -35 -58 0 -7 -11 -31 -25 -53 -14 -22 -25 -46 -25 -54 0 -7 -7 -19 -15 -26 -8 -7 -12 -16 -9 -21 2 -5 -7 -30 -21 -56 -14 -26 -25 -58 -25 -70 0 -12 -5 -25 -10 -28 -6 -4 -8 -10 -6 -14 3 -4 -10 -52 -29 -106 -19 -54 -32 -101 -29 -106 3 -5 2 -14 -2 -21 -4 -6 -9 -41 -11 -77 -2 -35 -8 -69 -12 -75 -12 -15 -12 -384 0 -391 12 -8 12 -102 -1 -110 -5 -3 -10 -19 -10 -36 0 -67 -23 -110 -104 -190 -44 -44 -83 -79 -87 -79 -7 0 -196 -188 -214 -213 -5 -8 -32 -43 -58 -78 -26 -35 -66 -92 -87 -126 -22 -34 -44 -64 -49 -68 -6 -3 -8 -12 -5 -19 3 -7 -2 -19 -11 -26 -8 -7 -15 -17 -15 -22 0 -6 -9 -22 -20 -38 -11 -15 -17 -30 -13 -33 3 -4 -1 -17 -9 -29 -8 -13 -25 -54 -38 -93 -12 -38 -26 -74 -30 -80 -10 -16 -33 -93 -33 -113 0 -9 -4 -22 -9 -28 -4 -6 -6 -19 -2 -28 3 -9 2 -22 -3 -29 -11 -14 -10 -274 1 -299 4 -9 5 -21 2 -27 -15 -24 46 -114 70 -104 26 10 44 73 44 152 1 74 5 136 10 136 1 0 3 15 5 34 2 18 7 43 13 55 22 47 32 78 32 95 0 15 30 86 61 143 5 10 9 24 9 31 0 8 11 30 23 49 13 19 27 46 30 59 4 14 18 41 31 60 14 19 31 45 38 59 20 41 88 140 96 140 4 0 16 16 26 35 11 19 24 35 30 35 6 0 19 14 28 30 9 17 28 34 42 40 14 5 30 18 36 30 6 11 16 20 22 20 7 0 23 10 37 23 15 13 46 32 71 42 25 10 53 25 62 33 9 7 43 15 76 16 l60 3 36 -54 c20 -29 36 -55 36 -57 0 -6 123 -126 129 -126 4 0 28 -18 55 -40 26 -22 52 -40 58 -40 5 0 26 -11 46 -25 20 -14 44 -25 53 -25 9 0 36 -11 61 -24 25 -13 63 -27 86 -31 23 -4 44 -11 48 -16 3 -5 9 -7 13 -4 5 2 44 -5 87 -16 116 -31 224 -39 577 -42 116 -2 218 -6 225 -11 7 -4 21 -5 31 -1 16 5 75 -10 131 -32 8 -3 18 -6 22 -5 22 5 170 -78 213 -119 17 -16 36 -29 42 -29 6 0 13 -9 16 -20 3 -11 12 -20 19 -20 24 0 138 -153 138 -184 0 -8 7 -19 15 -26 8 -7 15 -18 15 -26 0 -7 9 -29 21 -48 11 -19 22 -45 23 -58 2 -13 6 -30 9 -38 15 -41 29 -168 29 -280 0 -118 -2 -149 -17 -245 -4 -22 -7 -48 -7 -57 1 -10 -3 -20 -8 -23 -5 -3 -7 -12 -4 -19 3 -8 1 -17 -5 -20 -6 -4 -8 -12 -5 -19 2 -7 -7 -44 -22 -82 -14 -39 -27 -77 -28 -85 -3 -20 -15 -52 -27 -70 -16 -26 -59 -165 -66 -216 -5 -30 -3 -32 31 -36 31 -3 43 2 93 47 75 65 203 194 203 203 0 4 23 31 50 60 28 29 50 57 50 62 0 5 9 14 20 20 11 6 20 17 20 25 0 8 6 18 13 22 7 4 21 25 32 46 11 21 30 48 43 59 12 12 22 27 22 33 0 7 11 24 25 39 14 15 39 55 56 89 17 34 39 71 50 83 10 11 19 26 19 34 0 7 25 63 57 124 31 61 60 122 66 136 5 14 21 47 34 74 14 27 27 62 28 78 2 15 11 38 20 50 8 13 15 32 15 43 0 12 4 25 10 31 5 5 12 25 14 45 3 19 18 81 35 138 17 57 28 107 25 112 -3 5 -2 15 3 22 4 6 9 36 10 66 1 29 8 70 15 90 18 50 18 561 0 612 -7 20 -14 63 -17 95 -2 32 -4 59 -6 59 -1 0 -3 17 -4 38 -1 21 -7 55 -13 75 -40 132 -51 175 -47 182 3 5 1 11 -4 14 -4 3 -11 25 -15 48 -4 24 -13 52 -20 63 -7 11 -23 52 -36 90 -13 39 -29 79 -36 90 -6 11 -15 31 -19 45 -4 14 -32 77 -62 140 -83 171 -85 174 -97 185 -7 6 -26 34 -42 64 -16 30 -37 63 -46 73 -10 10 -18 23 -18 29 0 6 -15 28 -33 49 -18 22 -40 51 -48 66 -8 15 -24 38 -36 50 -13 13 -23 30 -23 38 0 9 -8 20 -18 25 -10 5 -24 22 -32 38 -8 15 -23 34 -32 41 -10 7 -18 19 -18 27 0 7 -4 15 -10 17 -8 3 -124 150 -132 167 -5 11 -78 51 -93 51 -7 0 -23 -11 -36 -24 -32 -33 -33 -119 -2 -205 12 -35 20 -67 18 -71 -3 -5 -1 -11 5 -15 5 -3 10 -16 10 -28 -1 -12 3 -62 7 -112 9 -105 10 -335 0 -385 -3 -19 -8 -53 -12 -75 -3 -22 -13 -53 -21 -70 -9 -16 -22 -50 -30 -75 -7 -25 -25 -61 -39 -80 -14 -18 -25 -40 -25 -47 0 -7 -13 -28 -30 -46 -16 -19 -30 -39 -30 -45 0 -6 -14 -22 -32 -37 -18 -15 -37 -37 -43 -48 -6 -12 -19 -26 -30 -32 -11 -6 -39 -30 -63 -53 -24 -23 -49 -42 -57 -42 -8 0 -15 -4 -15 -9 0 -11 -136 -82 -165 -87 -11 -1 -59 -17 -108 -34 -66 -23 -96 -29 -123 -24 -22 4 -45 2 -59 -6 -17 -9 -28 -10 -37 -2 -7 5 -40 10 -73 9 -37 0 -72 6 -92 16 -18 10 -41 17 -51 17 -11 0 -25 7 -32 15 -7 8 -16 12 -21 9 -15 -9 -229 126 -229 145 0 4 -13 15 -30 24 -16 10 -30 24 -30 31 0 7 -17 29 -37 49 -69 65 -133 146 -133 167 0 6 -16 36 -36 66 -20 30 -42 73 -49 97 -7 23 -20 59 -29 79 -9 21 -16 41 -15 45 1 5 0 10 -1 13 -1 3 -4 16 -6 30 -2 14 -6 41 -9 60 -6 41 -5 270 1 320 9 69 11 85 14 85 1 0 4 17 5 37 2 20 11 50 19 67 9 16 16 37 16 46 0 9 7 27 16 40 9 13 13 29 10 34 -4 6 0 27 9 47 20 49 19 62 -7 85 -26 21 -34 23 -43 9z"/>
 <path d="M2415 1859 c-4 -5 -12 -8 -18 -6 -7 2 -29 -7 -49 -20 -21 -12 -42 -23 -48 -23 -6 0 -15 -11 -20 -25 -5 -14 -14 -25 -20 -25 -6 0 -9 -4 -6 -9 3 -5 -1 -29 -10 -53 -13 -40 -13 -51 0 -102 8 -31 13 -62 11 -69 -2 -7 7 -32 20 -57 14 -25 34 -65 46 -90 12 -25 32 -58 45 -73 13 -16 24 -34 24 -41 0 -7 14 -25 30 -41 17 -16 30 -32 30 -36 0 -5 18 -27 40 -51 22 -24 40 -48 40 -54 0 -15 -75 -45 -94 -38 -8 3 -17 1 -21 -5 -8 -14 -102 -14 -111 0 -4 7 -21 9 -45 5 -21 -3 -40 -2 -43 3 -3 5 -15 7 -27 4 -11 -3 -30 -1 -42 5 -22 10 -180 32 -230 32 -15 0 -50 -11 -79 -24 -29 -13 -69 -28 -88 -34 -43 -11 -209 -127 -216 -150 -3 -10 -12 -29 -20 -45 -8 -15 -12 -31 -9 -37 9 -14 -13 -87 -29 -93 -20 -8 -34 -77 -22 -109 11 -32 37 -40 171 -53 17 -2 30 -4 30 -5 0 -1 13 -3 28 -5 16 -2 44 -13 63 -24 19 -12 41 -21 48 -21 6 0 17 -5 24 -12 6 -6 27 -17 47 -24 46 -15 140 -72 177 -106 16 -15 45 -37 63 -48 19 -12 38 -27 42 -33 5 -7 24 -24 43 -38 19 -15 51 -41 70 -60 38 -36 58 -50 106 -72 17 -8 35 -20 38 -26 14 -23 83 -43 157 -48 81 -5 139 6 204 37 22 11 68 28 103 39 92 28 123 53 165 135 19 39 39 82 42 96 4 14 15 39 25 57 10 17 26 60 35 95 9 34 22 72 30 84 14 21 31 91 27 108 -2 4 2 14 9 22 6 7 8 18 4 24 -3 5 -3 15 1 21 4 7 9 30 11 52 2 22 9 47 15 55 18 21 18 393 1 414 -7 8 -15 28 -17 44 -2 16 -8 42 -15 57 -6 16 -11 34 -11 40 0 7 -9 26 -20 42 -11 17 -20 35 -20 42 0 7 -16 29 -35 50 -19 21 -35 42 -35 47 0 15 -52 66 -67 66 -8 0 -16 7 -19 15 -4 8 -12 15 -18 15 -7 0 -25 14 -41 30 -16 17 -35 30 -43 30 -7 0 -34 14 -58 31 -25 17 -55 32 -67 34 -12 1 -42 12 -66 23 -24 11 -50 18 -57 15 -6 -2 -15 1 -19 7 -4 6 -15 8 -25 5 -10 -3 -21 -1 -25 5 -8 13 -152 13 -160 -1z"/>
 </g>
</svg>
