<?xml version="1.0" encoding="utf-8"?>
<!-- Generator: Adobe Illustrator 16.0.0, SVG Export Plug-In . SVG Version: 6.00 Build 0)  -->
<!DOCTYPE svg PUBLIC "-//W3C//DTD SVG 1.1//EN" "http://www.w3.org/Graphics/SVG/1.1/DTD/svg11.dtd">

<svg xmlns="http://www.w3.org/2000/svg" id="Layer_2" data-name="Layer 2" viewBox="0 0 150 150">
  <defs>
    <style>.cls-1{fill:#2d2c2a;}.cls-2{fill:#4e7837;}.cls-3{fill:#69923e;}.cls-4{fill:#fff;}</style>
  </defs>
  <title>Untitled-1</title>
  <rect class="cls-1" width="150" height="150" />
  <path class="cls-2" d="M105.74,115.55a8.87,8.87,0,0,0,4.54-6.13c1.5-9.73-17.14-9.53-20.76-15.38-4-8-4.8-29.29-5.18-35.67,10.86-1,14.1-2.14,14.1-5.33,0-2.68-.92-4.13-9.17-5.4-0.71-.15-1.39-0.28-2.14-0.39a19.28,19.28,0,0,0,6.43-14.53A19.09,19.09,0,0,0,82.07,15.06a17.8,17.8,0,0,0-13.93,0,19.44,19.44,0,0,0-5.06,32.18c-1.31.24-2.14,0.43-2.14,0.43-8.25,1.26-9.17,2.72-9.17,5.4,0,3.17,3.26,4.28,14.1,5.33-0.41,6.43-1.2,27.68-5.18,35.67-3.08,5-17.44,5.59-20.31,11.91a5.93,5.93,0,0,0-.45,3.47c0,2.14,1.65,4.28,4.54,6.13-5.83,2.14-9.34,5-9.34,8.14a6,6,0,0,0,2.59,4.46,31.68,31.68,0,0,0,12.06,5.36l0.81,0.19a113.22,113.22,0,0,0,48.8,0l0.81-.19a31.77,31.77,0,0,0,12.06-5.36,6,6,0,0,0,2.59-4.46C115.08,120.59,111.57,117.74,105.74,115.55Z" transform="translate(0 -0.01)" />
  <path class="cls-3" d="M75.21,13.62a17.82,17.82,0,0,1,7,1.41c4.76,2.29,12.62,22.24-4.28,32.86,0,0,6.75,1.39,6.75,5.14,0,4.28-7.65,5.33-7.65,5.33,0,5.85-6.06,45-7,50.32a15.75,15.75,0,0,1-8.44,11.89,20.27,20.27,0,0,1,1.63,4.28c0,5-1.2,9.15-11.76,9l-0.54-.13L50,133.55A31.68,31.68,0,0,1,38,128.19a6,6,0,0,1-2.59-4.46c0-3.11,3.51-5.93,9.34-8.14-2.89-1.82-4.54-3.9-4.54-6.13a5.93,5.93,0,0,1,.45-3.47c2.89-6.43,17.14-6.88,20.31-11.91,4-8,4.78-29.29,5.18-35.67-10.84-1-14.1-2.14-14.1-5.33,0-2.68.92-4.13,9.17-5.4,0,0,.73-0.19,2.14-0.43a19.44,19.44,0,0,1,5.06-32.18A17.8,17.8,0,0,1,75.21,13.62Z" transform="translate(0 -0.01)" />
  <path class="cls-4" d="M74.59,17.84c9.34,2.59-5.18,9.45-8.06,10.71C62.7,30.42,65.4,15.29,74.59,17.84Z" transform="translate(0 -0.01)" />
</svg>
