<!DOCTYPE svg PUBLIC "-//W3C//DTD SVG 20010904//EN" "http://www.w3.org/TR/2001/REC-SVG-20010904/DTD/svg10.dtd">
<svg version="1.0" xmlns="http://www.w3.org/2000/svg" width="400px" height="400px" viewBox="0 0 4000 4000" preserveAspectRatio="xMidYMid meet">
<g id="layer1" fill="#8dd0c0" stroke="none">
 <path d="M1797 3394 c-452 -70 -849 -361 -1057 -773 -54 -108 -105 -262 -126 -381 -23 -127 -23 -363 0 -490 91 -509 460 -935 953 -1099 162 -54 240 -66 443 -66 203 0 281 12 443 66 203 67 377 172 533 322 171 163 294 357 368 578 94 281 94 607 0 871 -63 175 -179 376 -313 538 -83 101 -111 159 -111 229 0 64 23 121 69 173 17 20 31 38 31 42 0 3 -258 6 -572 5 -431 -1 -595 -4 -661 -15z m-242 -610 c12 -12 13 -19 4 -30 -9 -11 -67 -14 -309 -14 -266 0 -299 2 -304 16 -16 41 3 44 305 44 251 0 290 -2 304 -16z m755 1 c7 -8 10 -22 6 -30 -5 -13 -44 -15 -308 -13 -287 3 -303 4 -306 22 -2 10 2 22 10 27 7 5 142 9 299 9 242 0 288 -2 299 -15z m755 -1 c12 -12 13 -19 4 -30 -9 -11 -67 -14 -309 -14 -266 0 -299 2 -304 16 -16 41 3 44 305 44 251 0 290 -2 304 -16z m-1604 -110 c9 -11 10 -20 2 -32 -9 -15 -35 -17 -194 -20 -213 -3 -229 -1 -229 32 0 14 6 27 13 29 6 3 98 6 203 6 163 1 193 -1 205 -15z m750 6 c10 -6 19 -17 19 -25 0 -30 -39 -35 -231 -33 -173 3 -193 5 -203 21 -9 15 -7 21 8 33 16 11 59 14 204 14 107 0 191 -4 203 -10z m757 -2 c17 -17 15 -45 -4 -52 -9 -3 -100 -6 -204 -6 -158 0 -191 3 -204 16 -9 8 -16 17 -16 19 0 2 7 11 16 19 13 13 46 16 208 16 136 0 195 -3 204 -12z m-1500 -135 c3 -18 -3 -24 -30 -31 l-33 -8 0 -250 0 -249 30 -5 c24 -4 30 -10 30 -30 l0 -25 -210 0 -210 0 0 25 c0 20 6 26 28 28 l27 3 0 255 0 254 -25 0 c-13 0 -29 8 -34 18 -21 38 2 43 219 40 203 -3 205 -3 208 -25z m756 11 c9 -22 -11 -44 -40 -44 l-24 0 0 -255 0 -255 24 0 c33 0 53 -25 36 -45 -19 -22 -418 -22 -426 0 -9 21 14 45 42 45 l24 0 0 255 0 255 -24 0 c-28 0 -51 24 -42 45 4 13 37 15 215 15 184 0 210 -2 215 -16z m751 -14 c0 -20 -6 -26 -27 -28 l-28 -3 0 -254 0 -254 28 -3 c21 -2 27 -8 27 -28 l0 -25 -210 0 -210 0 0 25 c0 20 6 26 30 30 l30 5 0 250 0 250 -25 3 c-33 4 -54 31 -38 49 8 11 53 13 217 11 l206 -3 0 -25z m-1517 -659 c8 -5 12 -17 10 -27 -3 -18 -17 -19 -209 -22 -168 -2 -208 0 -218 12 -9 11 -8 17 4 30 14 14 45 16 208 16 106 0 198 -4 205 -9z m267 -7 c20 -20 6 -40 -36 -49 -21 -5 -29 -12 -27 -23 3 -15 35 -17 348 -17 313 0 345 2 348 17 2 11 -6 18 -27 23 -42 9 -56 29 -35 50 12 12 26 15 47 11 59 -12 85 -56 67 -112 -22 -65 -18 -64 -400 -64 -383 0 -378 -1 -400 65 -14 42 2 83 40 102 34 17 55 16 75 -3z m495 1 c7 -8 10 -22 6 -30 -8 -23 -424 -23 -432 0 -4 8 -1 22 6 30 18 22 402 22 420 0z m748 6 c8 -5 12 -17 10 -27 -3 -18 -17 -19 -209 -22 -168 -2 -208 0 -218 12 -9 11 -8 17 4 30 14 14 45 16 208 16 106 0 198 -4 205 -9z m-1404 -126 c3 -8 -2 -21 -10 -30 -13 -13 -58 -15 -299 -15 -241 0 -286 2 -299 15 -8 9 -13 22 -10 30 5 13 52 15 309 15 257 0 304 -2 309 -15z m1510 0 c3 -8 -2 -21 -10 -30 -13 -13 -58 -15 -299 -15 -241 0 -286 2 -299 15 -8 9 -13 22 -10 30 9 22 609 22 618 0z m-1314 -111 c0 -9 -16 -34 -35 -57 -60 -70 -80 -122 -80 -212 0 -44 2 -95 5 -114 7 -49 -18 -63 -68 -35 -96 54 -627 386 -633 396 -23 37 -9 38 407 38 363 0 404 -2 404 -16z m348 1 c78 -23 144 -82 184 -162 29 -59 33 -77 32 -143 -1 -86 -23 -145 -75 -204 -35 -41 -123 -96 -152 -96 -14 0 -17 -5 -12 -20 4 -13 -1 -34 -14 -56 -12 -19 -21 -37 -21 -39 0 -2 26 -5 58 -7 l57 -3 3 -52 3 -53 -44 0 c-50 0 -62 -7 -45 -27 9 -11 3 -23 -30 -56 l-42 -42 -42 42 c-33 33 -39 45 -30 56 17 20 5 27 -45 27 l-44 0 3 53 3 52 58 3 c31 2 57 5 57 7 0 2 -9 20 -21 39 -13 22 -18 43 -14 56 5 15 2 20 -12 20 -29 0 -117 55 -152 96 -52 59 -74 118 -75 204 -1 66 3 84 32 142 71 144 223 209 380 163z m965 1 c3 -8 0 -21 -6 -29 -7 -8 -117 -79 -246 -157 -129 -78 -272 -167 -319 -196 -47 -30 -94 -54 -103 -54 -29 0 -39 22 -29 65 26 110 2 217 -65 300 -25 30 -45 62 -45 70 0 13 50 15 404 15 337 0 405 -2 409 -14z"/>
 <path d="M1160 2255 l0 -255 35 0 35 0 0 255 0 255 -35 0 -35 0 0 -255z"/>
 <path d="M1280 2255 l0 -255 35 0 35 0 0 255 0 255 -35 0 -35 0 0 -255z"/>
 <path d="M1914 2497 c-2 -7 -3 -120 -2 -252 l3 -240 33 -3 32 -3 0 255 0 256 -30 0 c-17 0 -33 -6 -36 -13z"/>
 <path d="M2040 2255 l0 -256 33 3 32 3 0 250 0 250 -32 3 -33 3 0 -256z"/>
 <path d="M2670 2255 l0 -255 35 0 35 0 0 255 0 255 -35 0 -35 0 0 -255z"/>
 <path d="M2790 2255 l0 -255 35 0 35 0 0 255 0 255 -35 0 -35 0 0 -255z"/>
 </g>
<g id="layer2" fill="#202935" stroke="none">
 <path d="M0 2000 l0 -2000 2000 0 2000 0 0 2000 0 2000 -2000 0 -2000 0 0 -2000z m3030 1404 c0 -4 -14 -22 -31 -42 -46 -52 -69 -109 -69 -173 0 -70 28 -128 111 -229 185 -224 309 -470 360 -713 28 -131 30 -357 5 -497 -91 -509 -460 -935 -953 -1099 -162 -54 -240 -66 -443 -66 -203 0 -281 12 -443 66 -271 90 -521 270 -692 497 -124 165 -225 398 -261 602 -23 127 -23 363 0 490 64 357 265 677 565 899 107 79 297 173 428 212 185 54 227 57 851 58 314 1 572 -2 572 -5z"/>
 <path d="M951 2786 c-6 -7 -9 -21 -5 -30 5 -14 38 -16 304 -16 242 0 300 3 309 14 9 11 8 18 -4 30 -14 14 -53 16 -304 16 -233 0 -291 -3 -300 -14z"/>
 <path d="M1712 2791 c-8 -5 -12 -17 -10 -27 3 -18 19 -19 306 -22 264 -2 303 0 308 13 4 8 1 22 -6 30 -11 13 -57 15 -299 15 -157 0 -292 -4 -299 -9z"/>
 <path d="M2461 2786 c-6 -7 -9 -21 -5 -30 5 -14 38 -16 304 -16 242 0 300 3 309 14 9 11 8 18 -4 30 -14 14 -53 16 -304 16 -233 0 -291 -3 -300 -14z"/>
 <path d="M1053 2683 c-7 -2 -13 -15 -13 -29 0 -33 16 -35 229 -32 159 3 185 5 194 20 8 12 7 21 -2 32 -12 14 -42 16 -205 15 -105 0 -197 -3 -203 -6z"/>
 <path d="M1804 2676 c-15 -12 -17 -18 -8 -33 10 -16 30 -18 203 -21 192 -2 231 3 231 33 0 29 -40 35 -222 35 -145 0 -188 -3 -204 -14z"/>
 <path d="M2556 2674 c-9 -8 -16 -17 -16 -19 0 -2 7 -11 16 -19 13 -13 46 -16 204 -16 104 0 195 3 204 6 9 3 16 14 16 23 0 38 -18 41 -216 41 -162 0 -195 -3 -208 -16z"/>
 <path d="M1043 2559 c-18 -18 3 -49 32 -49 l25 0 0 -254 0 -255 -27 -3 c-22 -2 -28 -8 -28 -28 l0 -25 210 0 210 0 0 25 c0 20 -6 26 -30 30 l-30 5 0 249 0 250 33 8 c27 7 33 13 30 31 -3 22 -5 22 -208 25 -147 2 -209 -1 -217 -9z m187 -304 l0 -255 -35 0 -35 0 0 255 0 255 35 0 35 0 0 -255z m120 0 l0 -255 -35 0 -35 0 0 255 0 255 35 0 35 0 0 -255z"/>
 <path d="M1794 2555 c-9 -21 14 -45 42 -45 l24 0 0 -255 0 -255 -24 0 c-28 0 -51 -24 -42 -45 8 -22 407 -22 426 0 17 20 -3 45 -36 45 l-24 0 0 255 0 255 24 0 c29 0 49 22 40 44 -5 14 -31 16 -215 16 -178 0 -211 -2 -215 -15z m186 -301 l0 -255 -32 3 -33 3 -3 240 c-1 132 0 245 2 252 3 7 19 13 36 13 l30 0 0 -256z m125 1 l0 -250 -32 -3 -33 -3 0 256 0 256 33 -3 32 -3 0 -250z"/>
 <path d="M2552 2557 c-16 -18 5 -45 38 -49 l25 -3 0 -250 0 -250 -30 -5 c-24 -4 -30 -10 -30 -30 l0 -25 210 0 210 0 0 25 c0 20 -6 26 -27 28 l-28 3 0 254 0 254 28 3 c21 2 27 8 27 28 l0 25 -206 3 c-164 2 -209 0 -217 -11z m188 -302 l0 -255 -35 0 -35 0 0 255 0 255 35 0 35 0 0 -255z m120 0 l0 -255 -35 0 -35 0 0 255 0 255 35 0 35 0 0 -255z"/>
 <path d="M1045 1874 c-12 -13 -13 -19 -4 -30 10 -12 50 -14 218 -12 192 3 206 4 209 22 2 10 -2 22 -10 27 -7 5 -99 9 -205 9 -163 0 -194 -2 -208 -16z"/>
 <path d="M1650 1877 c-38 -19 -54 -60 -40 -102 22 -66 17 -65 400 -65 382 0 378 -1 400 64 18 56 -8 100 -67 112 -21 4 -35 1 -47 -11 -21 -21 -7 -41 35 -50 21 -5 29 -12 27 -23 -3 -15 -35 -17 -348 -17 -313 0 -345 2 -348 17 -2 11 6 18 27 23 42 9 56 29 36 49 -20 19 -41 20 -75 3z"/>
 <path d="M1800 1875 c-7 -8 -10 -22 -6 -30 8 -23 424 -23 432 0 4 8 1 22 -6 30 -18 22 -402 22 -420 0z"/>
 <path d="M2555 1874 c-12 -13 -13 -19 -4 -30 10 -12 50 -14 218 -12 192 3 206 4 209 22 2 10 -2 22 -10 27 -7 5 -99 9 -205 9 -163 0 -194 -2 -208 -16z"/>
 <path d="M946 1755 c-3 -8 2 -21 10 -30 13 -13 58 -15 299 -15 241 0 286 2 299 15 8 9 13 22 10 30 -5 13 -52 15 -309 15 -257 0 -304 -2 -309 -15z"/>
 <path d="M2456 1755 c-3 -8 2 -21 10 -30 13 -13 58 -15 299 -15 241 0 286 2 299 15 8 9 13 22 10 30 -9 22 -609 22 -618 0z"/>
 <path d="M947 1647 c-3 -8 -2 -19 2 -25 6 -10 537 -342 633 -396 50 -28 75 -14 68 35 -3 19 -5 70 -5 114 0 90 20 142 80 212 66 77 85 73 -369 73 -328 0 -405 -3 -409 -13z"/>
 <path d="M1903 1641 c-77 -26 -136 -80 -175 -159 -29 -58 -33 -76 -32 -142 1 -86 23 -145 75 -204 35 -41 123 -96 152 -96 14 0 17 -5 12 -20 -4 -13 1 -34 14 -56 12 -19 21 -37 21 -39 0 -2 -26 -5 -57 -7 l-58 -3 -3 -52 -3 -53 44 0 c50 0 62 -7 45 -27 -9 -11 -3 -23 30 -56 l42 -42 42 42 c33 33 39 45 30 56 -17 20 -5 27 45 27 l44 0 -3 53 -3 52 -57 3 c-32 2 -58 5 -58 7 0 2 9 20 21 39 13 22 18 43 14 56 -5 15 -2 20 12 20 29 0 117 55 152 96 52 59 74 118 75 204 1 66 -3 84 -32 143 -72 146 -234 212 -389 158z"/>
 <path d="M2260 1645 c0 -8 20 -40 45 -70 67 -83 91 -190 65 -300 -10 -43 0 -65 29 -65 9 0 56 24 103 54 47 29 190 118 319 196 129 78 239 149 246 157 6 8 9 21 6 29 -4 12 -72 14 -409 14 -354 0 -404 -2 -404 -15z"/>
 </g>

</svg>