<?xml version="1.0" encoding="UTF-8" standalone="no"?>
<svg
   xmlns:dc="http://purl.org/dc/elements/1.1/"
   xmlns:cc="http://creativecommons.org/ns#"
   xmlns:rdf="http://www.w3.org/1999/02/22-rdf-syntax-ns#"
   xmlns:svg="http://www.w3.org/2000/svg"
   xmlns="http://www.w3.org/2000/svg"
   xml:space="preserve"
   style="enable-background:new 0 0 466.227 466.227;"
   viewBox="0 0 466.227 466.227"
   height="512px"
   width="512px"
   y="0px"
   x="0px"
   id="Capa_1"
   version="1.1"><metadata
     id="metadata41"><rdf:RDF><cc:Work
         rdf:about=""><dc:format>image/svg+xml</dc:format><dc:type
           rdf:resource="http://purl.org/dc/dcmitype/StillImage" /><dc:title></dc:title></cc:Work></rdf:RDF></metadata><defs
     id="defs39" /><g
     id="layer1"><rect
       style="fill:#428bca;fill-opacity:0"
       y="-7.2848029"
       x="0"
       height="473.51178"
       width="503.76218"
       id="rect3370" /><rect
       style="fill:#428bca;fill-opacity:1"
       y="-5.9261909"
       x="0"
       height="472.15317"
       width="473.51178"
       id="rect3372" /></g><g
     style="fill:#ffffff;fill-opacity:1"
     transform="matrix(0.78711559,0,0,0.78758819,49.22931,51.361165)"
     id="g3"><path
       style="fill:#ffffff;fill-opacity:1"
       id="path5"
       d="m 463.36,2.852 c -1.906,-1.805 -4.188,-2.712 -6.854,-2.712 -49.677,0 -90.694,6.755 -123.051,20.271 -32.353,13.518 -66.424,38.072 -102.208,73.662 -15.225,15.418 -31.977,33.977 -50.248,55.675 l -108.205,5.708 c -3.046,0.387 -5.52,1.906 -7.423,4.57 L 1.418,269.666 c -2.285,3.806 -1.807,7.519 1.427,11.136 l 18.271,18.271 c 1.714,1.714 3.901,2.569 6.567,2.569 1.143,0 1.997,-0.096 2.568,-0.287 l 78.802,-24.273 80.228,80.232 -24.269,78.795 c -0.949,3.43 -0.188,6.472 2.285,9.138 l 18.272,18.274 c 2.094,1.707 4.285,2.566 6.567,2.566 1.716,0 3.238,-0.384 4.569,-1.144 L 306.344,400.99 c 2.666,-1.902 4.186,-4.373 4.568,-7.419 l 5.708,-108.209 c 21.7,-18.274 40.262,-35.022 55.676,-50.251 33.89,-34.074 58.009,-68.378 72.375,-102.923 C 459.044,97.641 466.227,56.669 466.227,9.278 466.224,6.804 465.273,4.664 463.36,2.852 Z M 394.277,110.92 c -5.325,5.326 -11.8,7.994 -19.414,7.994 -7.614,0 -14.082,-2.665 -19.414,-7.994 -5.325,-5.33 -7.994,-11.802 -7.994,-19.417 0,-7.611 2.666,-14.084 7.994,-19.414 5.328,-5.327 11.8,-7.993 19.414,-7.993 7.614,0 14.086,2.663 19.414,7.993 5.328,5.33 7.994,11.803 7.994,19.414 0,7.616 -2.659,14.083 -7.994,19.417 z" /></g><g
     id="g7" /><g
     id="g9" /><g
     id="g11" /><g
     id="g13" /><g
     id="g15" /><g
     id="g17" /><g
     id="g19" /><g
     id="g21" /><g
     id="g23" /><g
     id="g25" /><g
     id="g27" /><g
     id="g29" /><g
     id="g31" /><g
     id="g33" /><g
     id="g35" /></svg>