<!DOCTYPE svg PUBLIC "-//W3C//DTD SVG 20010904//EN" "http://www.w3.org/TR/2001/REC-SVG-20010904/DTD/svg10.dtd">
<svg version="1.0" xmlns="http://www.w3.org/2000/svg" width="148px" height="150px" viewBox="0 0 1480 1500" preserveAspectRatio="xMidYMid meet">
<g id="layer1" fill="#f7ef75" stroke="none">
 <path d="M0 750 l0 -750 740 0 740 0 0 750 0 750 -740 0 -740 0 0 -750z m914 511 c60 -11 185 -66 199 -88 4 -7 12 -13 17 -13 6 0 19 -9 30 -20 25 -25 6 -27 -39 -4 -53 26 -284 22 -341 -6 -8 -4 -46 -22 -83 -39 -37 -17 -70 -38 -74 -46 -3 -8 -10 -15 -16 -15 -16 0 -97 -81 -97 -97 0 -7 -5 -13 -11 -13 -5 0 -19 -20 -30 -45 -11 -24 -24 -47 -29 -50 -6 -3 -10 -14 -10 -24 0 -10 -8 -33 -17 -52 -25 -49 -25 -279 -1 -328 10 -18 15 -38 12 -43 -7 -11 -34 10 -34 26 0 7 -13 27 -30 46 -16 19 -29 41 -30 48 0 8 -7 26 -15 40 -49 91 -50 299 0 407 8 17 16 37 19 45 10 25 30 54 49 68 9 7 17 18 17 23 0 11 54 69 65 69 3 0 21 11 38 24 42 31 135 76 161 77 12 0 41 7 66 14 47 14 86 13 184 -4z m216 -382 c49 -30 50 -32 50 -79 l0 -48 -89 -4 c-102 -5 -133 -19 -159 -76 -9 -20 -17 -39 -18 -40 -2 -2 -18 2 -37 9 -41 15 -59 47 -61 107 -1 37 4 48 33 78 32 32 38 34 101 34 71 0 98 14 86 46 -9 23 31 12 94 -27z m50 -452 c0 -58 -2 -65 -32 -93 -42 -38 -69 -51 -143 -64 -93 -18 -169 -1 -242 51 -60 43 -95 89 -68 89 8 0 16 -4 19 -9 3 -4 26 -11 50 -14 46 -7 171 19 198 40 7 6 23 13 34 17 12 4 29 15 39 26 14 16 31 20 82 20 l63 0 0 -63z"/>
 </g>
<g id="layer2" fill="#e5de75" stroke="none">
 <path d="M770 1285 c0 -10 11 -15 35 -15 24 0 35 5 35 15 0 10 -11 15 -35 15 -24 0 -35 -5 -35 -15z"/>
 <path d="M930 1265 c0 -8 5 -15 10 -15 6 0 10 7 10 15 0 8 -4 15 -10 15 -5 0 -10 -7 -10 -15z"/>
 <path d="M630 1255 c0 -8 5 -15 10 -15 6 0 10 7 10 15 0 8 -4 15 -10 15 -5 0 -10 -7 -10 -15z"/>
 <path d="M970 1256 c0 -9 7 -16 16 -16 17 0 14 22 -4 28 -7 2 -12 -3 -12 -12z"/>
 <path d="M1090 1196 c0 -9 7 -16 16 -16 9 0 14 5 12 12 -6 18 -28 21 -28 4z"/>
 <path d="M1140 1160 c0 -5 5 -10 10 -10 6 0 10 5 10 10 0 6 -4 10 -10 10 -5 0 -10 -4 -10 -10z"/>
 <path d="M435 1149 c-4 -6 -5 -13 -2 -16 7 -7 27 6 27 18 0 12 -17 12 -25 -2z"/>
 <path d="M900 1145 c0 -12 13 -15 60 -15 47 0 60 3 60 15 0 12 -13 15 -60 15 -47 0 -60 -3 -60 -15z"/>
 <path d="M1170 1130 c0 -5 -7 -7 -15 -4 -10 4 -15 0 -15 -11 0 -12 5 -15 16 -11 9 3 20 6 25 6 5 0 9 7 9 15 0 8 -4 15 -10 15 -5 0 -10 -4 -10 -10z"/>
 <path d="M760 1115 c0 -8 5 -15 10 -15 6 0 10 7 10 15 0 8 -4 15 -10 15 -5 0 -10 -7 -10 -15z"/>
 <path d="M395 1109 c-4 -6 -5 -13 -2 -16 7 -7 27 6 27 18 0 12 -17 12 -25 -2z"/>
 <path d="M690 1085 c0 -8 5 -15 10 -15 6 0 10 7 10 15 0 8 -4 15 -10 15 -5 0 -10 -7 -10 -15z"/>
 <path d="M347 1053 c-12 -11 -8 -23 8 -23 8 0 15 7 15 15 0 16 -12 20 -23 8z"/>
 <path d="M600 1024 c0 -9 5 -14 12 -12 18 6 21 28 4 28 -9 0 -16 -7 -16 -16z"/>
 <path d="M317 1003 c-12 -11 -8 -23 8 -23 8 0 15 7 15 15 0 16 -12 20 -23 8z"/>
 <path d="M1025 929 c-9 -13 -7 -15 33 -22 38 -8 47 17 10 27 -31 8 -36 8 -43 -5z"/>
 <path d="M280 920 c0 -5 7 -10 15 -10 8 0 15 5 15 10 0 6 -7 10 -15 10 -8 0 -15 -4 -15 -10z"/>
 <path d="M500 920 c0 -5 5 -10 10 -10 6 0 10 5 10 10 0 6 -4 10 -10 10 -5 0 -10 -4 -10 -10z"/>
 <path d="M880 865 c0 -8 5 -15 10 -15 6 0 10 7 10 15 0 8 -4 15 -10 15 -5 0 -10 -7 -10 -15z"/>
 <path d="M450 844 c0 -9 5 -14 12 -12 18 6 21 28 4 28 -9 0 -16 -7 -16 -16z"/>
 <path d="M250 785 c0 -16 6 -25 15 -25 9 0 15 9 15 25 0 16 -6 25 -15 25 -9 0 -15 -9 -15 -25z"/>
 <path d="M797 793 c-12 -11 -8 -23 8 -23 8 0 15 7 15 15 0 16 -12 20 -23 8z"/>
 <path d="M420 774 c0 -9 5 -14 12 -12 18 6 21 28 4 28 -9 0 -16 -7 -16 -16z"/>
 <path d="M1010 735 c0 -8 5 -15 10 -15 6 0 10 7 10 15 0 8 -4 15 -10 15 -5 0 -10 -7 -10 -15z"/>
 <path d="M250 695 c0 -16 6 -25 15 -25 9 0 15 9 15 25 0 16 -6 25 -15 25 -9 0 -15 -9 -15 -25z"/>
 <path d="M790 710 c0 -5 7 -10 15 -10 8 0 15 5 15 10 0 6 -7 10 -15 10 -8 0 -15 -4 -15 -10z"/>
 <path d="M390 660 c0 -11 7 -20 15 -20 8 0 15 9 15 20 0 11 -7 20 -15 20 -8 0 -15 -9 -15 -20z"/>
 <path d="M830 650 c0 -5 5 -10 10 -10 6 0 10 5 10 10 0 6 -4 10 -10 10 -5 0 -10 -4 -10 -10z"/>
 <path d="M280 560 c0 -5 7 -10 15 -10 8 0 15 5 15 10 0 6 -7 10 -15 10 -8 0 -15 -4 -15 -10z"/>
 <path d="M390 510 c0 -11 7 -20 15 -20 8 0 15 9 15 20 0 11 -7 20 -15 20 -8 0 -15 -9 -15 -20z"/>
 <path d="M312 488 c6 -18 28 -21 28 -4 0 9 -7 16 -16 16 -9 0 -14 -5 -12 -12z"/>
 <path d="M967 453 c-12 -11 -8 -23 8 -23 8 0 15 7 15 15 0 16 -12 20 -23 8z"/>
 <path d="M670 415 c0 -8 9 -15 20 -15 11 0 20 7 20 15 0 8 -9 15 -20 15 -11 0 -20 -7 -20 -15z"/>
 <path d="M900 415 c0 -8 5 -15 10 -15 6 0 10 7 10 15 0 8 -4 15 -10 15 -5 0 -10 -7 -10 -15z"/>
 <path d="M860 405 c0 -8 5 -15 10 -15 6 0 10 7 10 15 0 8 -4 15 -10 15 -5 0 -10 -7 -10 -15z"/>
 <path d="M370 402 c0 -5 11 -19 25 -32 25 -23 25 -23 40 -4 16 21 15 36 -3 42 -7 2 -12 -5 -12 -15 -1 -17 -1 -17 -14 0 -14 18 -36 23 -36 9z"/>
 <path d="M690 360 c0 -5 5 -10 10 -10 6 0 10 5 10 10 0 6 -4 10 -10 10 -5 0 -10 -4 -10 -10z"/>
 <path d="M1110 300 c0 -5 5 -10 10 -10 6 0 10 5 10 10 0 6 -4 10 -10 10 -5 0 -10 -4 -10 -10z"/>
 <path d="M800 280 c0 -6 12 -15 26 -20 33 -13 34 -13 34 4 0 7 -10 16 -22 20 -32 8 -38 7 -38 -4z"/>
 <path d="M1060 275 c0 -8 5 -15 10 -15 6 0 10 7 10 15 0 8 -4 15 -10 15 -5 0 -10 -7 -10 -15z"/>
 </g>
<g id="layer3" fill="#010101" stroke="none">
 <path d="M672 1270 c-40 -10 -97 -32 -125 -47 -71 -38 -185 -155 -224 -229 -103 -194 -78 -435 61 -599 26 -30 37 -37 46 -28 9 8 8 25 -5 69 -22 77 -22 221 0 299 83 291 378 460 676 388 107 -25 107 2 2 73 -126 85 -288 113 -431 74z"/>
 <path d="M1027 923 c-4 -3 -7 -15 -7 -25 0 -15 -8 -18 -56 -18 -105 0 -164 -51 -164 -141 0 -52 23 -90 72 -115 39 -20 55 -13 74 36 22 55 54 70 152 70 47 0 83 5 90 12 7 7 12 33 12 59 0 42 -4 51 -33 73 -55 42 -124 66 -140 49z"/>
 <path d="M1036 491 c-53 -59 -193 -99 -285 -81 -71 13 -81 13 -81 -5 0 -28 72 -95 137 -127 53 -26 78 -32 132 -32 86 0 158 25 215 75 45 40 46 42 46 103 0 35 -5 67 -12 74 -7 7 -39 12 -73 12 -48 0 -66 -4 -79 -19z"/>
 </g>

</svg>