<?xml version="1.0" encoding="UTF-8" standalone="no"?>
<svg
   xmlns:dc="http://purl.org/dc/elements/1.1/"
   xmlns:cc="http://creativecommons.org/ns#"
   xmlns:rdf="http://www.w3.org/1999/02/22-rdf-syntax-ns#"
   xmlns:svg="http://www.w3.org/2000/svg"
   xmlns="http://www.w3.org/2000/svg"
   xmlns:sodipodi="http://sodipodi.sourceforge.net/DTD/sodipodi-0.dtd"
   xmlns:inkscape="http://www.inkscape.org/namespaces/inkscape"
   version="1.0"
   width="400.000000pt"
   height="400.000000pt"
   viewBox="0 0 400.000000 400.000000"
   preserveAspectRatio="xMidYMid meet"
   id="svg839"
   sodipodi:docname="gilmoregirlsguide.svg"
   inkscape:version="1.0.1 (c497b03c, 2020-09-10)">
  <defs
     id="defs843" />
  <sodipodi:namedview
     pagecolor="#ffffff"
     bordercolor="#666666"
     borderopacity="1"
     objecttolerance="10"
     gridtolerance="10"
     guidetolerance="10"
     inkscape:pageopacity="0"
     inkscape:pageshadow="2"
     inkscape:window-width="1573"
     inkscape:window-height="932"
     id="namedview841"
     showgrid="false"
     inkscape:zoom="1.335"
     inkscape:cx="268.16479"
     inkscape:cy="207.85705"
     inkscape:window-x="0"
     inkscape:window-y="25"
     inkscape:window-maximized="0"
     inkscape:current-layer="g837" />
  <metadata
     id="metadata833">
Created by potrace 1.16, written by Peter Selinger 2001-2019
<rdf:RDF>
  <cc:Work
     rdf:about="">
    <dc:format>image/svg+xml</dc:format>
    <dc:type
       rdf:resource="http://purl.org/dc/dcmitype/StillImage" />
  </cc:Work>
</rdf:RDF>
</metadata>
  <g
     transform="translate(0.000000,400.000000) scale(0.100000,-0.100000)"
     fill="#000000"
     stroke="none"
     id="g837">
    <path
       fill="#d65408"
       d="m -98.258499,4045.7978 c -714.000001,-75 264.123659,-608.6517 -20.876341,-1262.6517 -89,-203 95.337085,-368.1461 71.337085,-610.1461 -16,-164 -77.797755,-193.236 -61.797755,-356.236 26,-257 -145.71911,-947.76402 -47.71911,-1155.76402 -293.38204,-886.67417 44.47189,-617.168533 466.47189,-821.16853 229,-111 1245.84273,77.57304 1518.84273,50.57304 163,-16 158.5281,0.85393 322.5281,16.853933 273,27 525.7977,-144.719113 753.7977,-33.719113 338,164.000003 1133.7079,-128.47193 1339.7079,184.528073 C 4421.0337,327.06738 4098.0674,1482 4132.0674,1827 c 16,163 -17.7078,183 -33.7078,345 -18,181 108.0674,280 58.0674,438 -209,663 741.618,1268.5056 52.618,1430.5056 C 4102.045,4065.5056 2076,4001 1982,3999 c -31,-1 -2008.258499,54.7978 -2080.258499,46.7978 z M 2148,3475 c 112,-8 314,-17 450,-20 l 247,-5 3,-270 c 2,-257 1,-273 -19,-320 -35,-81 -110,-112 -172,-72 -36,24 -49,39 -135,154 -40,53 -92,113 -115,133 -91,79 -271,145 -396,145 -183,0 -391,-169 -515,-418 -191,-380 -234,-1144 -87,-1562 121,-346 322,-532 591,-547 199,-11 290,40 334,187 29,93 56,386 56,601 0,230 -2,235 -85,245 -67,8 -111,39 -131,91 -15,39 -15,44 2,80 33,66 42,67 390,70 176,2 325,-2 344,-7 40,-12 79,-47 101,-92 37,-76 41,-87 35,-96 -3,-5 -48,-20 -101,-32 -52,-12 -98,-27 -103,-34 -19,-23 -23,-78 -32,-386 -9,-352 -23,-447 -79,-557 -30,-61 -103,-144 -171,-195 -231,-174 -749,-196 -1048,-44 -117,59 -268,201 -356,335 -181,275 -276,638 -276,1056 0,417 107,807 305,1111 76,116 253,293 352,351 66,39 206,95 264,106 48,9 148,7 347,-8 z"
       id="path835"
       sodipodi:nodetypes="ccccccccccccccccccccccccsccccscsccccccccccccscccc" />
  </g>
</svg>
