<?xml version="1.0" encoding="utf-8"?>
<!-- Generator: Adobe Illustrator 21.1.0, SVG Export Plug-In . SVG Version: 6.00 Build 0)  -->
<svg version="1.1" id="Layer_1" xmlns="http://www.w3.org/2000/svg" xmlns:xlink="http://www.w3.org/1999/xlink" x="0px" y="0px"
	 viewBox="0 0 1200 1200" style="enable-background:new 0 0 1200 1200; background:#39424e" xml:space="preserve">
<rect x="376.8" y="323.9" fill="#ffffff" width="446.4" height="552.2"/>
<path fill="#2ec866" d="M983.8,404.5c-0.2-1.8-0.3-3.6-0.6-5.5c-1.9-11.3-7.6-21.6-16.1-29.1c-0.1-0.2-0.2-0.3-0.4-0.3
	c-1.8-1.4-3.6-2.8-5.5-4c-52.1-38.5-106.9-74.5-164.3-107.7c-57.8-33.4-116.7-63.1-176.6-89.1c-1.2-0.6-2.5-1.1-3.7-1.6
	c-0.2-0.1-0.4-0.2-0.6-0.2c-5.1-1.9-10.5-2.8-15.9-2.8c-5.6,0-11.2,1-16.6,3c-0.8,0.3-1.6,0.6-2.3,1
	C520.8,194.3,461.3,224.3,403,258c-57.1,33-111.7,68.8-163.6,107.2c-2.2,1.5-4.3,3.1-6.5,4.8c-0.1,0-0.2,0.1-0.2,0.2
	c-8.4,7.6-14.1,17.8-15.9,28.9c-0.3,1.8-0.4,3.6-0.6,5.5c-7.3,64.5-11.1,130-11.1,196.4c0,67,3.8,133.1,11.3,198
	c1.5,13.3,8.5,25.5,19.1,33.7c0.9,0.7,1.8,1.3,2.7,1.9C290,873,344.6,908.8,401.9,941.8c57.7,33.3,116.5,62.9,176.2,88.9
	c0.1,0.1,0.1,0.1,0.2,0.1c1.1,0.6,2.3,1,3.5,1.5c11.9,4.7,25.2,4.7,37.1-0.1c0.3-0.2,0.7-0.3,1-0.5c0.9-0.4,1.8-0.7,2.6-1.2
	c59.5-25.9,118.3-55.6,175.9-88.8c57.2-33,111.7-68.8,163.6-107.3c0.9-0.6,1.8-1.3,2.7-1.9c10.6-8.2,17.6-20.4,19.1-33.7
	c7.5-65,11.3-131.1,11.3-198C994.9,534.5,991.2,469,983.8,404.5z M779.2,786.2l-60.7,56.5c-3.9,3.6-10,3.6-13.9,0l-60.7-56.5
	c-6.8-6.3-2.3-17.7,6.9-17.7h14.4V646.7H534.8v135.9c0,5.4-4.4,9.8-9.8,9.8h-73.1c-5.4,0-9.8-4.4-9.8-9.8V431.5h-14.4
	c-9.3,0-13.7-11.4-6.9-17.7l60.7-56.5c3.9-3.6,10-3.6,13.9,0l60.7,56.5c6.8,6.3,2.3,17.7-6.9,17.7h-14.4v121.8h130.4V417.4
	c0-5.4,4.4-9.8,9.8-9.8h73.1c5.4,0,9.8,4.4,9.8,9.8v351.1h14.4C781.5,768.5,786,779.9,779.2,786.2z"/>
</svg>
