<?xml version="1.0" encoding="utf-8"?>
<!-- Generator: Adobe Illustrator 16.0.0, SVG Export Plug-In . SVG Version: 6.00 Build 0)  -->
<!DOCTYPE svg PUBLIC "-//W3C//DTD SVG 1.1//EN" "http://www.w3.org/Graphics/SVG/1.1/DTD/svg11.dtd">
<svg version="1.1" id="Ebene_1" xmlns="http://www.w3.org/2000/svg" xmlns:xlink="http://www.w3.org/1999/xlink" x="0px" y="0px"
	 width="512px" height="512px" viewBox="-20 -20 552 552" enable-background="new 0 0 512.192 512.206"
	 xml:space="preserve" style="background:#FE7100">
<g>
	<path fill-rule="evenodd" clip-rule="evenodd" fill="#292A29" d="M33.085,321.854c-16.091-9.019-27.392-22.014-32.989-39.742
		c0-4,0-8,0-12c4.457-10.32,13.297-11.984,23.12-11.702c6.262-1.186,12.585-1.042,18.808-0.112
		c5.73,0.855,10.638,0.291,15.311-3.657c5.19-4.386,11.17-7.776,16.877-11.49c1.584-1.03,3.278-2.575,5.375-0.819
		c1.459,5.112,1.26,10.374,1.422,15.597c-0.178,0.458-0.684,1.235-0.758,1.185c-3.914-2.701-6.213,0.691-8.898,2.374
		c-5.471,3.428-10.031,8.218-16.099,10.779c-10.608-0.056-21.184-0.741-31.759-1.431c-0.647-0.042-1.3-0.233-1.963-0.284
		c-7.578-0.578-10.48,2.778-8.58,10.067c0.966,3.706,2.381,7.253,4.522,10.463c8.438,13.692,20.751,21.717,36.396,24.838
		c1.961,0.392,3.928,0.729,5.825,1.393c7.227,5.833,14.032,12.165,22.376,16.57c28.545,15.07,58.627,25.059,90.756,29.021
		c23.428,2.89,45.227-2.914,66.734-11.023c11.376-4.29,22.397-9.416,33.521-14.298c6.874-3.016,13.897-5.573,21.18-7.423
		c2.967-0.605,5.973-0.456,8.962-0.39c10.068,0.223,17.438,6.928,20.099,18.182c0.916,8.07-3.144,14.146-8.284,19.561
		c-10.724,11.297-24.395,18.003-38.763,23.017c-24.095,8.407-49,10.913-74.381,7.981c-11.051-1.277-21.453-4.599-31.035-10.403
		c-1.535-0.931-3.006-2.978-5.318-1.561c-2.936,5.146-0.283,9.456,2.468,13.353c5.292,7.493,12.466,12.964,20.679,16.929
		c14.429,6.964,29.87,10.095,45.671,12.124c8.624,1.108,17.307,1.185,25.896,1.438c8.558,0.253,17.291-0.152,25.897-1.007
		c3.155-0.313,6.3-0.53,9.458-0.643c3.063-0.109,4.789-1.325,5.285-4.688c2.944-19.962,13.07-35.823,28.71-48.145
		c18.131-14.285,34.999-29.83,49.296-47.986c13.338-16.938,23.561-35.507,28.165-56.818c0.353-1.632,0.781-3.247,1.905-4.567
		c2.886-1.983,3.883-4.758,3.766-8.194c-0.131-3.827-0.068-7.663-0.008-11.491c0.542-3.204-0.988-5.514-3.254-7.507
		c-0.78-1.111-1.273-2.354-1.434-3.687c-1.305-10.934-5.764-20.389-13.275-28.415c-4.355-4.653-6.643-10.247-7.777-16.44
		c-1.736-9.484-3.291-19.004-5.268-28.443c-1.092-5.217-2.318-10.422-5.15-15.025c-2.354-3.824-4.711-4.146-7.379-0.659
		c-5.72,7.479-9.061,16.222-12.282,24.954c-1.152,3.125,1.938,4.178,3.757,5.732c9.109,7.11,9.349,8.714,2.739,18.581
		c-0.553,0.825-1.069,1.674-1.626,2.502c-12.537,15.06-29.438,22.338-47.922,26.631c-13.318,3.093-26.86,4.384-40.541,4.479
		c-24.29,0.17-48.527-0.285-72.447-5.148c-8.162-1.659-16.238-3.646-23.34-8.34c-3.901-2.578-6.821-5.807-7.495-10.643
		c-0.017-0.873,0.17-1.695,0.623-2.446c1.385-1.638,2.993-1.217,4.492-0.316c13.549,8.134,28.841,9.954,44.021,11.877
		c17.689,2.24,35.521,2.925,53.313,2.084c22.188-1.049,44.162-3.684,64.409-13.951c12.02-6.095,12.181-7.857,1.512-15.7
		c-1.738-1.278-3.647-2.426-3.928-4.875c0.324-2.523,2.512-3.342,4.266-4.479c2.36-1.53,4.787-2.956,7.139-4.507
		c2.139-1.411,2.734-3.116,1.683-5.504c-1.001-2.272-1.606-4.697-2.447-7.034c-0.95-2.641-2.119-5.194-3.187-8.509
		c-2.909,2.09-5.403,4.242-8.34,5.604c-1.852,0.858-3.59,2.617-5.951,1.293c-2.075-3.339-2.459-7.215-3.361-10.902
		c-2.216-9.058-4.705-18.014-8.268-26.653c-1.756-4.257-4.391-7.827-7.895-10.742c-5.969-4.963-12.472-5.164-18.727-0.607
		c-7.15,5.208-12.444,12.479-19.584,17.716c-1.336,0.979-2.547,2.136-3.94,3.051c-5.509,3.616-9.503,3.291-14.42-1.054
		c-4.508-3.982-7.814-9.058-12.178-13.181c-2.722-2.571-5.678-4.607-9.314-5.545c-4.836-1.246-6.905,0.062-7.555,4.967
		c-1.941,14.672-3.968,29.322-7.835,43.648c-0.694,2.573-1.433,5.123-2.454,7.587c-1.432,5.063-3.314,9.946-5.944,14.511
		c-0.943,1.639-1.588,3.749-4.158,3.515c-1.527-1.721-1.647-3.95-2.096-6.037c-1.717-7.977-3.721-15.87-6.493-23.554
		c-0.508-1.408-0.894-2.879-1.644-4.174c-1.213-2.093-1.875-5.015-4.92-5.037c-2.644-0.02-3.82,2.348-5.119,4.277
		c-4.12,6.121-6.745,12.984-9.539,19.731c-4.52,10.909-9.238,21.744-13.359,32.813c-3.649,9.804-10.639,15.803-20.363,18.995
		c-6.351,0.001-12.746,0.254-18.466-3.271c-0.211-2.635,2.021-3.183,3.67-4.077c4.099-2.224,8.298-4.259,12.483-6.314
		c5.039-2.476,8.365-6.311,10.418-11.553c5.709-14.574,11.461-29.132,18.021-43.359c2.034-4.412,4.323-8.646,7.039-12.632
		c8.567-12.576,23.583-11.81,31.108,1.504c0.469,0.828,0.611,1.842,1.563,2.679c1.746-10.103,3.733-20.006,4.563-30.097
		c0.704-8.549,3.685-16.302,9.263-22.774c5.426-6.296,12.285-9.439,20.891-7.735c7.253,1.436,13.426,4.769,18.762,9.811
		c8.185,7.733,8.144,7.675,15.376-0.968c3.941-4.709,7.919-9.348,12.444-13.595c11.172-10.485,31.85-7.068,41.049,4.813
		c4.512,5.828,8.142,12.167,10.889,19.014c5.393,13.438,10.748,26.888,16.033,41.315c1.875-3.21,3.414-5.882,5.482-8.148
		c9.35-10.248,22.651-8.718,29.48,3.288c4.462,7.843,6,16.547,7.735,25.188c1.509,7.508,2.264,15.2,4.32,22.561
		c3.076,11.009,9.249,19.543,20.584,23.739c20.937,7.752,41.376,16.704,61.542,26.283c2.568,1.22,4.832,2.759,6.693,4.897
		c5.139,3.241,10.512,6.098,15.302,9.915c2.988,2.382,4.938,5.55,7.376,8.346c0,3.333,0,6.667,0,10
		c-7.468,11.509-17.701,20.57-26.969,30.487c-0.929,2.791-2.81,4.884-4.998,6.731c-11.465,9.678-21.688,20.668-32.634,30.899
		c-27.251,25.472-54.105,51.368-80.196,78.04c-6.877,7.029-13.475,14.31-19.235,22.293c-2.757,3.82-6.372,5.929-11.013,5.788
		c-15.995-0.483-31.961,1.567-47.914,0.948c-25.744-0.999-51.623-0.991-76.94-6.914c-19.073-4.461-37.028-11.179-50.939-25.8
		c-6.632-6.97-11.262-14.791-10.536-24.979c0.254-3.587,0.704-6.998,2.84-9.915c2.379-3.25,1.294-4.392-2.305-5.157
		c-19.941-4.24-39.255-10.486-57.912-18.715c-13.758-6.067-27.135-12.789-38.223-23.255c-2.449-2.313-5.688-2.586-8.688-3.526
		C41.723,326.56,36.597,325.934,33.085,321.854z"/>
	<path fill-rule="evenodd" clip-rule="evenodd" fill="#E3B372" d="M56.184,271.257c7.123-5.634,14.466-10.96,22.367-16.041
		c0.51,1.491,0.953,2.785,1.396,4.079c1.763,1.393,1.707,3.537,2.074,5.424c1.289,6.616,3.697,12.71,7.864,18.056
		c5.394,7.828,13.288,11.882,22.313,12.675c15.361,1.35,30.586,0.212,45.23-5.451c13.242-5.121,23.35-13.86,30.943-25.706
		c1.336-2.084,2.285-4.488,4.626-5.777c1.919-0.756,3.698-0.39,5.395,0.661c1.651,1.019,2.613,2.512,2.97,4.407
		c5.643,30.072,26.226,45.767,53.256,55.133c9.004,3.121,18.164,5.431,27.859,3.12c6.854-1.633,12.658-4.896,17.329-10.175
		c8.498-10.25,13.155-22.289,16.362-34.998c1.638-6.487,3.225-7.961,10.026-7.966c19.47-0.015,38.86-1.97,58.326-2.221
		c6.29-0.081,12.594-1.021,18.927-0.808c1.967,0.066,4.047-0.187,5.615,1.462c-3.818,22.945-14.625,42.64-28.545,60.817
		c-14.271,18.638-31.367,34.41-49.881,48.754c-16.102,12.476-26.024,28.718-28.707,49.084c-0.301,2.282-0.85,3.632-3.444,3.854
		c-33.992,2.906-67.858,3.957-100.72-7.624c-11.271-3.972-21.729-9.582-29.279-19.189c-3.975-5.057-8.06-10.521-4.148-17.631
		c1.462-1.138,2.504,0.01,3.494,0.76c15.115,11.425,32.871,15.864,51.051,18.617c24.889,3.77,48.356-1.72,70.443-13.139
		c11.139-5.758,21.518-12.857,28.189-23.961c3.535-5.883,6.133-12.188,4.729-19.368c-3.764-12.907-10.968-18.021-24.123-17.136
		c-1.324,0.089-2.654,0.117-3.98,0.173c-20.262,1.642-39.305,8.358-58.558,14.155c-18.133,5.46-36.706,8.607-55.554,9.01
		c-21.361,0.456-42.022-3.779-61.781-12.206c-19.516-8.322-37.892-18.769-56.104-29.547c-0.577-0.343-1.064-0.797-1.494-1.316
		c-0.91-1.597-0.849-3.299-0.561-5.028c0.842-10.335-0.152-20.466-3.361-30.353C56.247,274.362,54.846,272.971,56.184,271.257z"/>
	<path fill-rule="evenodd" clip-rule="evenodd" d="M198.139,260.141c-1.608-0.562-3.223-1.082-4.967-0.864
		c-3.52-0.539-1.396-4.399-3.482-5.867c-1.633,0.624-1.748,2.294-2.289,3.596c-8.793,21.165-25.152,32.526-47.252,36.231
		c-11.076,1.857-22.22,2.202-33.199-0.813c-6.629-1.82-12.865-4.525-18.079-9.184c-5.945-6.875-8.028-15.188-8.923-23.945
		c-0.361-5.839-0.723-11.679-1.084-17.518c0.486-6.647,0.971-13.294,1.457-19.94c1.056-3.685,3.918-2.927,6.533-2.596
		c19.157,2.424,38.262,5.229,57.391,7.864c57.719,7.951,115.41,16.099,173.133,24.018c5.357,0.734,10.653-0.271,15.915-0.677
		c20.888-1.614,41.813-2.704,62.68-4.609c4.636-0.424,9.319-0.143,13.94-0.934c1.517-0.26,2.98,0.149,4.183,1.216
		c0,4.788-0.062,9.577,0.021,14.364c0.061,3.608-1.147,6.117-5.051,6.646c-21.764,0.867-43.527,1.729-65.29,2.602
		c-6.647,0.267-13.292,0.742-19.94,0.768c-3.572,0.013-5.191,1.027-5.955,4.822c-1.868,9.299-4.878,18.288-9.508,26.646
		c-2.26,4.08-4.699,8.038-8.286,11.135c-13.4,7.676-27.69,8.01-42.099,4.231c-11.829-3.103-22.838-8.275-32.435-16.137
		c-12.083-9.898-18.804-22.662-20.71-38.061c-0.416-3.361-0.358-3.368-1.764-5.905C200.952,257.386,201.25,261.663,198.139,260.141z
		"/>
	<path fill-rule="evenodd" clip-rule="evenodd" fill="#484948" d="M211.067,167.23c5.205-17.188,8.167-34.803,10.051-52.625
		c0.469-4.434,3.436-6.292,8.228-5.268c7.195,1.539,11.688,6.809,16.139,11.961c1.622,1.878,3.155,3.848,4.911,5.614
		c6.881,6.925,10.57,6.644,18.26,0.329c6.96-5.713,12.579-12.817,19.862-18.155c7.126-5.222,14.619-4.808,21.204,1.051
		c7.987,7.105,9.907,17.126,12.945,26.524c2.34,7.237,3.714,14.787,5.518,22.197c-0.074,0.979-0.607,1.681-1.35,2.26
		c-8.826,4.434-18.235,7.078-27.875,9.025c-21.724,4.388-43.556,4.188-65.475,1.764c-5.779-0.64-11.576-1.103-17.302-2.144
		C214.258,169.414,212.131,169.365,211.067,167.23z"/>
	<path fill-rule="evenodd" clip-rule="evenodd" fill="#1371B5" d="M331.286,433.328c-5.737,1.286-11.484-0.56-17.269,0.029
		c-1.819,0.186-1.175-2.403-1.105-3.698c0.722-13.324,6.155-24.698,14.714-34.705c7.641-8.933,17.758-15.014,26.412-22.789
		c27.455-24.664,51.159-51.987,62.554-88.024c5.825-18.424,7.134-37.122,2.644-56.066c-0.262-1.104-0.358-2.249-0.664-4.225
		c14.47,5.251,28.156,10.895,41.59,17.179c-3.307,28.387-13.084,54.242-30.49,77.016c-12.482,16.329-27.221,30.511-42.682,43.976
		c-13.672,11.906-27.545,23.582-41.099,35.623c-4.245,3.771-7.823,8.158-11.322,12.618c-3.851,4.908-5.272,10.641-6.158,16.646
		C327.983,429.801,329.415,431.599,331.286,433.328z"/>
	<path fill-rule="evenodd" clip-rule="evenodd" fill="#16A0FE" d="M331.286,433.328c-3.434,0.12-4.371-1.499-4.266-4.885
		c0.334-10.69,5.454-18.975,12.611-26.275c9.9-10.097,20.937-18.932,31.62-28.156c24.542-21.192,49.422-42.117,66.616-70.222
		c10.881-17.786,17.555-37.18,20.244-57.893c0.239-1.848,0.422-3.641,2.049-4.869c12.381,5.347,24.571,11.078,35.725,18.74
		c6.812,4.68,7.118,6.363,1.793,12.57c-13.256,15.449-28.313,29.139-42.945,43.226c-19.432,18.704-39.095,37.167-58.641,55.753
		c-17.504,16.644-34.758,33.533-50.584,51.816c-1.416,1.636-3.02,3.194-4.057,5.057
		C339.167,432.291,335.957,434.148,331.286,433.328z"/>
	<path fill-rule="evenodd" clip-rule="evenodd" fill="#484948" d="M335.076,181.204c0.349,3.472,3.679,4,5.743,5.751
		c10.015,8.496,11.23,8.524-0.898,15.646c-14.131,8.299-29.97,11.229-45.978,13.589c-16.539,2.438-33.177,2.526-49.734,1.718
		c-19.813-0.967-39.704-2.333-58.762-8.81c-3.642-1.238-7.134-2.681-10.311-4.902c-1.084-0.758-2.138-2.41-3.883-1.062
		c-1.638-2.393,0.118-3.966,1.355-5.67c4.97-4.345,10.987-6.073,17.35-7c1.974-0.288,3.938-0.696,5.854-1.3
		c1.316-0.416,2.635-0.809,4.043-0.653c11.529,1.436,22.989,3.35,34.555,4.553c33.629,3.499,66.682,2.661,98.056-12.043
		c0.296-0.139,0.64-0.174,0.965-0.25C334.042,180.678,334.59,180.824,335.076,181.204z"/>
	<path fill-rule="evenodd" clip-rule="evenodd" fill="#E3B372" d="M359.981,178.274c-5.88-3.802-5.877-3.801-3.146-10.32
		c2.89-6.898,5.675-13.854,9.767-20.159c1.608-2.479,3.246-5.581,6.726-5.127c3.311,0.431,4.64,3.567,5.773,6.348
		c3.858,9.472,5.039,19.593,6.971,29.529c0.951,4.892,1.9,9.785,2.732,14.698c0.744,4.405,2.537,8.43,5.581,11.519
		c9.425,9.565,14.176,21.113,15.504,34.273c-1.872,2.01-4.454,2.251-6.89,2.377c-19.56,1.016-39.048,2.999-58.586,4.301
		c-5.791,0.386-11.593,0.798-17.364,1.479c-5.651,0.668-11.269,0.833-16.755-1.03c-2.459-1.377-1.301-2.595,0.275-3.603
		c1.27-0.812,2.824-0.91,4.273-1.239c8.146-1.848,15.785-4.992,23.029-9.094c11.451-6.484,19.134-16.106,23.504-28.474
		c0.822-2.324,1.03-4.884,2.567-6.944c4.112-1.91,8.142,0.198,12.2,0.392c2.83,0.135,4.183-0.166,3.458-3.342
		c-2.179-9.547-3.368-19.282-5.456-28.846c-0.33-1.511-0.264-3.76-2.381-3.885c-1.89-0.111-2.504,1.918-3.328,3.312
		c-1.781,3.01-2.833,6.364-4.377,9.48C363.167,175.717,362.782,178.188,359.981,178.274z"/>
	<path fill-rule="evenodd" clip-rule="evenodd" fill="#16A0FE" d="M334.122,181.153c-12.396,7.21-26.043,10.648-40.006,12.935
		c-25.222,4.128-50.358,1.688-75.443-1.521c-6.55-0.838-13.166-1.456-19.549-3.342c-0.506-2.735,1.153-3.739,3.412-4.264
		c4.327-5.196,6.128-11.609,8.532-17.731c8.032,2.225,16.332,2.746,24.554,3.547c23.402,2.281,46.721,2.231,69.743-3.553
		c7.42-1.863,14.575-4.44,21.646-7.304c1.622-0.662,2.675,0.14,3.095,1.551c1.754,5.892,3.668,11.748,4.65,17.841
		C334.866,179.985,334.522,180.604,334.122,181.153z"/>
	<path fill-rule="evenodd" clip-rule="evenodd" fill="#FEFEFE" d="M220.195,389.42c-13.214,0.008-26.228-1.266-38.299-7.243
		c-1.538-0.761-4.667-1.123-3.979-3.153c0.865-2.554,2.404-5.298,6.373-5.16c10.861,0.376,21.539-1.319,32.096-3.763
		c19.356-4.479,37.321-12.67,55.376-20.664c8.927-3.952,17.737-8.4,27.648-9.563c6.099-0.716,9.403,1.096,12.456,6.106
		c2.857,4.691,0.644,8.367-2.082,11.808c-7.342,9.264-17.363,14.825-27.969,19.398C262.165,385.659,241.528,389.382,220.195,389.42z
		"/>
	<path fill-rule="evenodd" clip-rule="evenodd" fill="#BA945F" d="M364.239,197.298c-3.163,16.349-12.1,28.527-26.631,36.561
		c-8.037,4.443-16.477,7.895-25.637,9.266c-1.264,0.189-2.188,0.702-2.814,1.787c-1.836,1.927-4.077,0.981-6.121,0.721
		c-29.015-3.699-57.994-7.657-86.992-11.479c-12.523-1.65-24.947-3.979-37.498-5.432c-1.979-0.229-3.99-0.397-5.653-1.702
		c-4.551-4.769-5.848-10.538-4.995-16.879c0.273-2.029,0.344-4.385,3.045-5.037c1.375,6.402,6.154,9.634,11.555,12.148
		c11.918,5.55,24.764,7.367,37.631,8.812c19.844,2.228,39.795,2.848,59.721,1.95c23.907-1.077,47.254-4.75,67.811-18.472
		c5.178-3.455,9.532-7.731,13.578-12.385C362.277,196.371,363.288,196.186,364.239,197.298z"/>
	<path fill-rule="evenodd" clip-rule="evenodd" fill="#BA945F" d="M61.158,311.089c9.672,4.051,18.229,10.134,27.414,15.078
		c20.251,10.9,40.937,20.818,63.786,24.669c19.545,3.294,39.176,2.319,58.726-1.156c19.981-3.552,38.931-10.767,58.471-15.865
		c8.069-2.105,16.224-3.33,24.589-2.673c-18.053,5.415-34.832,13.984-52.096,21.312c-34.092,14.472-68.541,15.964-103.847,5.237
		c-22.042-6.696-43.62-14.333-63.329-26.547c-5.864-3.636-10.912-8.168-15.58-13.184C57.68,315.063,58.6,312.854,61.158,311.089z"/>
	<path fill-rule="evenodd" clip-rule="evenodd" fill="#414042" d="M173.108,226.125c10.648,1.644,21.274,3.456,31.95,4.899
		c33.061,4.468,66.14,8.794,99.212,13.18c1.631,0.217,3.258,0.471,4.887,0.707c13.303,2.797,26.477-0.36,39.671-1.103
		c20.378-1.146,40.71-3.14,61.061-4.773c3.667,1.017,4.71,3.591,4.207,7.084c-16.528,1.264-33.054,2.563-49.585,3.779
		c-10.588,0.779-21.229,1.044-31.766,2.242c-17.451,1.984-34.256-2.46-51.287-4.517c-18.084-2.183-36.094-4.978-54.136-7.516
		c-20.665-2.906-41.324-5.853-61.993-8.727c-17.721-2.464-35.454-4.84-53.178-7.276c-8.859-1.217-17.714-2.461-26.563-3.743
		c-2.021-0.293-3.975-0.666-5.268,1.479c-0.049-6.551,1.516-7.874,7.896-6.978c9.674,1.358,19.358,2.642,29.048,3.886
		c0.933,0.12,1.93-0.258,2.896-0.404c6.149,2.211,12.555,2.692,19.014,2.798C150.655,221.646,162.071,222.6,173.108,226.125z"/>
	<path fill-rule="evenodd" clip-rule="evenodd" fill="#E3B371" d="M173.108,226.125c-11.371-1.252-22.785-2.217-33.934-4.982
		c11.273-4.146,16.834-13.042,20.828-23.786c5.143-13.831,10.668-27.539,17.118-40.84c0.724-1.493,1.364-3.056,2.294-4.415
		c2.073-3.033,3.111-7.825,7.82-7.331c4.48,0.471,5.371,5.083,6.71,8.522c3.983,10.236,6.17,20.991,8.59,31.67
		c-1.138,1.421-2.274,2.842-3.411,4.263c-1.008,0.298-2.017,0.596-3.025,0.894c-1.964-1.65-1.99-4.119-2.614-6.314
		c-1.771-6.229-2.786-12.676-5.388-18.66c-0.516-1.185-1.031-2.646-2.68-2.549c-1.343,0.079-1.799,1.367-2.313,2.384
		c-4.739,9.378-7.689,19.459-11.457,29.219c-0.691,1.789,0.543,2.772,1.448,3.923c-0.787,1.607-1.888,3.101-1.842,5.014
		c-0.104,0.656-0.208,1.313-0.312,1.969C167.079,212.583,169.09,219.457,173.108,226.125z"/>
	<path fill-rule="evenodd" clip-rule="evenodd" fill="#BA945F" d="M322.247,348.104c3.037,10.92-1.744,19.554-8.756,26.979
		c-14.883,15.759-33.914,24.117-54.645,28.97c-9.372,2.194-18.947,3.731-28.574,2.975c-21.166-1.664-41.676-5.794-59.902-17.666
		c-2.055-1.339-3.232-3.945-6.029-4.166c1.365-2.306,2.896-0.889,4.186-0.04c21.184,13.926,44.773,14.377,68.795,12.297
		c19.573-1.694,38.279-6.57,55.791-15.647c8.025-4.16,15.5-9.107,21.641-15.829C319.358,360.933,322.683,355.291,322.247,348.104z"
		/>
	<path fill-rule="evenodd" clip-rule="evenodd" fill="#9F7757" d="M56.184,271.257c5.39,9.761,4.942,20.628,5.885,31.226
		c0.113,1.286,0.248,2.673-0.764,3.775c-1.903-2.054-4.205-2.725-7.041-2.849c-9.12-0.397-18.047-2.16-26.734-4.942
		c-3.936-1.26-7.74-2.947-10.5-6.274c-4.131-4.687-5.736-10.283-6.045-16.396c-0.186-3.685,1.697-5.392,5.074-6.179
		c3.52-0.821,6.919,0.341,10.348,0.297C36.368,269.785,46.249,271.055,56.184,271.257z"/>
	<path fill-rule="evenodd" clip-rule="evenodd" fill="#9F7757" d="M364.239,197.298c-1.001-0.047-2.002-0.094-3.002-0.141
		c0.25-0.417,0.475-0.851,0.751-1.249c6.461-9.32,6.3-10.752-2.007-17.634c3.36-3.84,4.131-8.982,6.65-13.247
		c0.759-1.284,1.299-2.713,2.164-3.914c0.842-1.168,1.654-2.822,3.339-2.645c2.005,0.212,2.45,2.229,2.755,3.743
		c1.827,9.069,3.555,18.161,5.151,27.274c0.53,3.025,2.802,6.716,1.038,8.936c-1.82,2.291-5.503-0.725-8.487-0.354
		C369.792,198.416,367.12,196.6,364.239,197.298z"/>
	<path fill-rule="evenodd" clip-rule="evenodd" fill="#594A42" d="M17.03,292.192c12.436,6.833,25.92,9.551,39.935,9.803
		c3.326,0.06,4.46,1.241,4.341,4.263c-0.049,1.61-0.099,3.221-0.148,4.831c-0.621,2.29-1.244,4.581-1.865,6.871
		c-17.311-1.62-31.053-9.518-41.301-23.525C17.524,293.795,17.344,292.944,17.03,292.192z"/>
	<path fill-rule="evenodd" clip-rule="evenodd" fill="#1370B5" d="M334.122,181.153c-1.609-5.986-3.248-11.965-4.811-17.963
		c-0.37-1.423-0.334-3.019-2.301-3.269c0.392-0.354,0.782-0.708,1.174-1.062c4.266-1.491,7.989-3.925,11.471-6.734
		c1.91-1.543,3.084-2.077,4.042,1.03c1.603,5.202,3.524,10.319,5.595,15.356c0.961,2.338,0.514,3.619-1.582,4.856
		c-4.266,2.518-8.428,5.212-12.633,7.834C334.759,181.164,334.441,181.146,334.122,181.153z"/>
	<path fill-rule="evenodd" clip-rule="evenodd" fill="#414042" d="M198.139,260.141c1.061-0.187,1.678-0.718,2.074-1.82
		c0.596-1.665,1.089-4.071,3.246-3.887c2.723,0.234,2.057,3.221,2.27,4.84c0.561,4.27,1.039,8.523,2.178,12.698
		c4.845,17.756,16.699,29.426,32.701,37.308c11.709,5.766,23.885,9.865,37.279,8.861c7.673-0.575,14.938-2.749,22.198-5.039
		c-7.848,8.725-17.953,12.252-29.216,10.744c-18.678-2.5-35.525-9.764-49.856-22.255c-11.198-9.761-17.903-22.149-20.741-36.658
		C199.917,263.113,199.802,261.319,198.139,260.141z"/>
	<path fill-rule="evenodd" clip-rule="evenodd" fill="#414042" d="M88.871,283.24c8.132,3.697,15.869,8.463,25.046,9.357
		c21.588,2.104,41.91-0.919,58.759-15.883c6.38-5.666,10.671-13.078,13.858-21.084c0.702-1.765,0.784-5.082,3.535-4.58
		c2.562,0.468,1.958,3.454,2.082,5.561c0.059,1.009,0.072,2.01,1.021,2.665c-3.406,4.504-5.77,9.685-9.523,13.993
		c-11.75,13.485-26.951,20.226-44.233,22.8c-10.38,1.546-20.878,2.517-31.237,0.052C100.262,294.238,93.227,290.646,88.871,283.24z"
		/>
	<path fill-rule="evenodd" clip-rule="evenodd" fill="#FEFEFE" d="M278.098,265.014c-6.462,8.421-6.628,14.997-1.084,23.352
		c-15.061,2.508-32.552-7.95-37.266-22.281c-1.385-4.21-0.553-5.701,3.314-5.269C254.59,262.104,266.098,263.563,278.098,265.014z"
		/>
	<path fill-rule="evenodd" clip-rule="evenodd" fill="#FDFDFD" d="M150.805,247.048c-5.404,6.847-5.666,13.401-1.037,20.114
		c-13.441,1.675-27.238-6.287-31.855-18.208c-1.936-4.999-1.08-6.166,4.041-5.523C131.331,244.607,140.708,245.782,150.805,247.048z
		"/>
	<path fill-rule="evenodd" clip-rule="evenodd" fill="#F7F7F7" d="M290.698,285.334c2.763-6.555,3.498-12.14,0.262-17.65
		c7.665-1.368,9.235,0.29,7.486,7.563C297.249,280.227,295.792,282.241,290.698,285.334z"/>
	<path fill-rule="evenodd" clip-rule="evenodd" fill="#F1F1F1" d="M162.216,248.525c2.497,0.963,6.018-1.068,6.733,3.008
		c0.763,4.339-1.929,9.736-6.836,12.774C164.053,258.867,164.85,253.764,162.216,248.525z"/>
	<path fill-rule="evenodd" clip-rule="evenodd" fill="#9F7757" d="M173.095,198.121c-2.354,0.194-4.569,0.436-3.091-3.231
		c4.094-10.152,7.033-20.76,11.996-30.567c0.851-1.681,1.229-4.241,3.791-4.028c2.38,0.198,2.844,2.636,3.521,4.414
		c3.139,8.229,5.06,16.797,6.785,25.411c-2.447,1.548-5.301,1.539-8.008,1.925C182.559,192.83,177.766,195.29,173.095,198.121z"/>
	<path fill-rule="evenodd" clip-rule="evenodd" fill="#BCBEC0" d="M310.103,346.27c-12.047,19.023-90.837,43.647-108.122,34.015
		c19.523-1.871,38.188-4.181,56.209-10.045C276.047,364.429,292.455,355.424,310.103,346.27z"/>
	<path fill-rule="evenodd" clip-rule="evenodd" fill="#FDFCFC" d="M25.362,271.084c1.809,0.248,4.918,0.667,8.025,1.104
		c1.303,0.184,2.824,0.202,2.9,2.018c0.078,1.871-1.15,2.74-2.836,2.704c-6.568-0.144-12.36,1.934-17.459,5.98
		c-1.619,1.285-2.211,0.433-2.882-0.955c-2.009-4.15-0.296-8.364,4.063-10.087C19.417,270.962,21.725,271.143,25.362,271.084z"/>
</g>
</svg>
