<?xml version="1.0" ?><svg height="500" id="svg2" version="1.1" width="500" xmlns="http://www.w3.org/2000/svg" xmlns:cc="http://creativecommons.org/ns#" xmlns:dc="http://purl.org/dc/elements/1.1/" xmlns:inkscape="http://www.inkscape.org/namespaces/inkscape" xmlns:rdf="http://www.w3.org/1999/02/22-rdf-syntax-ns#" xmlns:sodipodi="http://sodipodi.sourceforge.net/DTD/sodipodi-0.dtd" xmlns:svg="http://www.w3.org/2000/svg"><defs id="defs4"/><g id="layer1" transform="translate(0,-552.36218)"><g id="layer1-9" transform="translate(-549.00515,80.294372)"/><g id="layer1-6" transform="translate(-575.71429,39.999999)"/><g id="layer1-5" transform="matrix(1.0016514,0,0,1.0016514,-45.347903,14.073528)"/><path d="m 0,552.3622 0,500 500,0 0,-500 z" id="rect2989-1" style="fill:#d12127;fill-opacity:1;stroke:none"/><path d="M 170.3125 129.65625 C 103.97606 129.65625 50 183.67037 50 250.03125 C 50 316.35952 103.97606 370.3125 170.3125 370.3125 C 206.49453 370.3125 240.4062 354.29207 263.34375 326.3125 C 264.01167 325.49793 264.19666 324.38369 263.78125 323.40625 L 248.59375 288.4375 C 248.16204 287.4682 247.19203 286.83023 246.125 286.78125 C 245.02536 286.73233 244.05122 287.33639 243.5625 288.28125 C 229.24282 315.64178 201.15245 332.59375 170.28125 332.59375 C 124.75639 332.59375 87.75 295.58053 87.75 250.03125 C 87.75 204.48195 124.7564 167.46875 170.28125 167.46875 C 203.42503 167.46875 233.81161 187.12073 245.875 216.46875 L 283.375 302.03125 L 287.6875 311.625 C 304.64631 351.13039 329.60026 368.85338 368.625 369 C 415.02962 369 450 338.25977 450 297.5 C 450 256.54475 427.35485 241.15386 388.28125 228.40625 C 384.77878 227.25775 381.38313 226.22198 378.125 225.1875 C 353.22439 217.35973 338.25 212.62799 338.25 193.25 C 338.25 177.52932 350.33995 166.125 367.0625 166.125 C 379.86709 166.125 389.4392 171.45557 398 183.4375 C 398.79833 184.55343 400.28492 184.97228 401.53125 184.3125 L 426.65625 171.46875 C 427.34045 171.13478 427.85079 170.51434 428.0625 169.78125 C 428.28248 169.04816 428.22659 168.26167 427.84375 167.59375 C 414.38748 143.67874 394.97267 132.0625 368.5 132.0625 C 328.22076 132.0625 302.15625 156.41161 302.15625 194.125 C 302.15625 232.68548 327.32775 248.30475 373.78125 263.59375 C 400.70181 272.57001 412.59375 277.31884 412.59375 296.46875 C 412.59375 317.99712 393.22407 333.46659 366.71875 332.5625 C 338.95916 331.62574 330.51841 316.91486 319.9375 292.8125 C 302.04198 251.98757 281.69547 204.3393 281.5 203.875 C 261.05494 156.71293 220.52912 129.65625 170.3125 129.65625 z " id="rect2989" style="fill:#ffffff;fill-opacity:1;stroke:none" transform="translate(0,552.36218)"/></g></svg>
