<!DOCTYPE svg PUBLIC "-//W3C//DTD SVG 20010904//EN" "http://www.w3.org/TR/2001/REC-SVG-20010904/DTD/svg10.dtd">
<svg version="1.0" xmlns="http://www.w3.org/2000/svg" width="300px" height="300px" viewBox="0 0 3000 3000" preserveAspectRatio="xMidYMid meet">
<g id="layer1" fill="#bef4ff" stroke="none">
 <path d="M1846 1627 c-62 -93 -60 -304 3 -361 19 -17 20 -17 35 6 28 43 49 148 42 212 -5 53 -46 166 -60 166 -3 0 -12 -10 -20 -23z"/>
 </g>
<g id="layer2" fill="#aad6ff" stroke="none">
 <path d="M2132 1829 c-79 -10 -172 -60 -231 -124 l-50 -55 27 -58 c21 -46 26 -72 27 -137 0 -76 -26 -186 -43 -184 -22 3 -20 -6 10 -47 151 -210 457 -216 619 -12 61 77 82 146 77 253 -6 114 -30 168 -113 250 -93 94 -196 130 -323 114z"/>
 </g>
<g id="layer3" fill="#ffeb3b" stroke="none">
 <path d="M1203 1639 c-21 -26 -53 -138 -53 -186 0 -55 19 -133 44 -181 14 -27 20 -31 31 -22 24 20 55 131 55 195 0 105 -49 228 -77 194z"/>
 </g>
<g id="layer4" fill="#ffae53" stroke="none">
 <path d="M837 1828 c-107 -14 -224 -94 -283 -194 -36 -61 -56 -167 -44 -237 52 -323 432 -447 659 -216 57 57 56 57 26 139 -35 94 -30 199 15 292 l18 38 -50 55 c-87 95 -211 140 -341 123z"/>
 </g>
<g id="layer5" fill="#62ce21" stroke="none">
 <path d="M1482 1829 c-29 -4 -78 -19 -110 -35 -67 -33 -166 -128 -158 -153 3 -9 14 -41 25 -71 29 -78 27 -171 -3 -256 -16 -44 -22 -73 -16 -84 18 -34 114 -113 168 -138 79 -37 208 -38 297 -3 75 30 192 139 180 168 -54 124 -60 227 -19 329 l25 64 -27 36 c-79 103 -227 162 -362 143z"/>
 </g>
<g id="layer6" fill="#2e353c" stroke="none">
 <path d="M0 1500 l0 -1500 1500 0 1500 0 0 1500 0 1500 -1500 0 -1500 0 0 -1500z m1066 270 c41 -20 79 -49 106 -80 l42 -49 51 52 c151 159 394 160 548 1 l53 -53 42 49 c101 117 294 156 439 88 62 -29 142 -109 173 -173 32 -68 40 -201 16 -273 -54 -161 -209 -263 -379 -250 -103 9 -212 66 -262 138 l-27 38 -61 -62 c-83 -84 -147 -110 -272 -111 -82 0 -96 3 -157 33 -45 22 -83 51 -116 88 l-49 55 -15 -23 c-105 -159 -341 -204 -510 -96 -191 121 -217 411 -51 570 111 107 283 130 429 58z"/>
 </g>

</svg>