<!DOCTYPE svg PUBLIC "-//W3C//DTD SVG 20010904//EN" "http://www.w3.org/TR/2001/REC-SVG-20010904/DTD/svg10.dtd">
<svg version="1.0" xmlns="http://www.w3.org/2000/svg" width="512px" height="512px" viewBox="-600 -600 6320 6320" style="background:#000000" preserveAspectRatio="xMidYMid meet">
<g id="layer2" fill="#ffffffff" stroke="none">
 <path d="M315 4906 c-41 -18 -83 -69 -90 -109 -3 -18 -4 -1036 -3 -2264 l3 -2232 21 -27 c11 -15 33 -37 48 -48 27 -20 39 -21 436 -21 397 0 409 1 436 21 15 11 37 33 48 48 l21 27 0 2259 0 2259 -21 27 c-11 15 -33 37 -48 48 -27 20 -41 21 -424 23 -315 2 -403 0 -427 -11z"/>
 <path d="M1675 4906 c-41 -18 -83 -69 -90 -109 -3 -18 -4 -1036 -3 -2264 l3 -2232 21 -27 c11 -15 33 -37 48 -48 27 -20 39 -21 436 -21 397 0 409 1 436 21 15 11 37 33 48 48 l21 27 0 2259 0 2259 -21 27 c-11 15 -33 37 -48 48 -27 20 -41 21 -424 23 -315 2 -403 0 -427 -11z"/>
 <path d="M3944 4881 c-23 -11 -50 -33 -61 -52 -13 -20 -253 -900 -583 -2134 -448 -1671 -561 -2108 -557 -2141 5 -52 36 -97 79 -117 60 -28 708 -197 756 -197 57 0 112 33 135 82 8 18 268 978 577 2132 404 1510 560 2108 556 2129 -9 44 -44 95 -77 112 -36 19 -727 205 -760 205 -13 0 -42 -9 -65 -19z"/>
 </g>

</svg>
