<svg xmlns="http://www.w3.org/2000/svg" width="500" height="500" viewBox="-40 -40 440 580" style="background:#d3f3fe"><g transform="translate(-584.344 -1.372) scale(12.58495)"><ellipse cx="65.245" cy="28.418" rx="4.411" ry="5.324" fill="#fff" stroke="#000" stroke-width="1.1"/><path d="M58.303 39.285c.063-.197.108-.4.108-.615 0-1.36-1.36-2.463-3.04-2.463-1.676 0-3.036 1.104-3.036 2.463 0 .215.044.418.108.615h5.864z" fill="#fff"/><path d="M58.303 39.285c.063-.197.108-.4.108-.615 0-1.36-1.36-2.463-3.04-2.463-1.676 0-3.036 1.104-3.036 2.463 0 .215.044.418.108.615h5.864z" fill="none" stroke="#000" stroke-width="1.1" stroke-linecap="round" stroke-linejoin="round"/><path d="M68.95 39.285c.06-.197.106-.4.106-.615 0-1.36-1.36-2.463-3.04-2.463s-3.04 1.104-3.04 2.463c0 .215.043.418.107.615h5.866z" fill="#fff"/><path d="M68.95 39.285c.06-.197.106-.4.106-.615 0-1.36-1.36-2.463-3.04-2.463s-3.04 1.104-3.04 2.463c0 .215.043.418.107.615h5.866z" fill="none" stroke="#000" stroke-width="1.1" stroke-linecap="round" stroke-linejoin="round"/><circle cx="49.684" cy="11.836" r="2.702" fill="#fff" stroke="#000" stroke-width="1.1"/><circle cx="71.786" cy="11.836" r="2.702" fill="#fff" stroke="#000" stroke-width="1.1"/><path d="M68.226 2.352L62.822 1.08l-1.986 6.278" fill="none" stroke="#000" stroke-width="1.1" stroke-linecap="round" stroke-linejoin="round"/><ellipse cx="56.146" cy="28.418" rx="4.411" ry="5.324" fill="#fff" stroke="#000" stroke-width="1.1"/><circle cx="70.431" cy="2.789" r="2.13" fill="#fff" stroke="#000" stroke-width="1.1"/><path d="M59.18 39.29h2.99c2.656-1.384 4.625-6.34 4.625-12.263 0-6.99-2.74-12.655-6.12-12.655s-6.118 5.666-6.118 12.655c0 5.922 1.968 10.88 4.624 12.262z" fill="#fff"/><path d="M59.18 39.29h2.99c2.656-1.384 4.625-6.34 4.625-12.263 0-6.99-2.74-12.655-6.12-12.655s-6.118 5.666-6.118 12.655c0 5.922 1.968 10.88 4.624 12.262z" fill="none" stroke="#000" stroke-width="1.1"/><ellipse cx="60.676" cy="15.552" rx="12.238" ry="7.987" fill="#fff" stroke="#000" stroke-width="1.1"/><path fill="none" stroke="#000" stroke-width="1.1" stroke-linecap="round" stroke-linejoin="round" d="M57.457 39.285h6.596"/><path d="M56.437 12c-1.087 0-2 .913-2 2s.913 1.97 2 1.97 1.97-.883 1.97-1.97-.883-2-1.97-2zm8.626 0c-1.087 0-2 .912-2 2 0 1.087.913 1.97 2 1.97 1.088 0 1.97-.883 1.97-1.97 0-1.088-.882-2-1.97-2z" fill="#ff4500"/><path d="M56.507 19.23c1.066 1.065 2.786 1.27 4.212 1.27m4.242-1.27c-1.067 1.065-2.786 1.27-4.213 1.27" fill="none" stroke="#000" stroke-width="1.1" stroke-linecap="round"/></g></svg>
