<!DOCTYPE svg PUBLIC "-//W3C//DTD SVG 20010904//EN" "http://www.w3.org/TR/2001/REC-SVG-20010904/DTD/svg10.dtd">
<svg version="1.0" xmlns="http://www.w3.org/2000/svg" width="300px" height="300px" viewBox="0 0 3000 3000" preserveAspectRatio="xMidYMid meet">
<g id="layer1" fill="#ffffff" stroke="none">
 <path d="M495 2768 c-3 -7 -4 -247 -3 -533 l3 -520 90 0 90 0 3 438 2 437 650 0 650 0 2 -437 3 -438 90 0 90 0 0 530 0 530 -833 3 c-661 2 -834 0 -837 -10z"/>
 <path d="M807 2433 c-4 -3 -7 -52 -7 -108 0 -74 4 -106 14 -114 9 -8 152 -10 512 -9 l499 3 0 115 0 115 -506 3 c-278 1 -509 -1 -512 -5z"/>
 <path d="M1280 2116 c-245 -23 -450 -45 -456 -48 -11 -8 3 -208 16 -222 4 -4 86 -1 182 8 95 9 316 30 491 46 175 16 322 32 328 36 13 7 1 194 -14 212 -13 17 -44 15 -547 -32z"/>
 <path d="M1380 1753 c-256 -68 -475 -128 -486 -133 l-22 -9 29 -102 c15 -56 32 -106 36 -110 7 -7 907 228 960 251 l22 9 -26 98 c-14 54 -30 103 -37 109 -8 9 -132 -21 -476 -113z"/>
 <path d="M1870 1581 c-25 -15 -211 -126 -415 -246 -203 -120 -377 -224 -387 -232 -15 -13 -12 -21 34 -98 28 -47 56 -89 63 -95 10 -8 108 45 396 216 211 125 404 239 428 253 25 15 46 31 48 36 4 13 -99 188 -112 191 -5 1 -30 -10 -55 -25z"/>
 <path d="M2018 1328 c-124 -175 -518 -758 -518 -767 0 -9 147 -117 174 -127 8 -3 114 144 294 410 155 228 282 418 282 424 0 10 -164 122 -179 122 -5 0 -29 -28 -53 -62z"/>
 <path d="M2270 1235 c-5 -14 -10 -33 -10 -41 0 -8 -36 -220 -80 -472 -44 -251 -77 -459 -73 -462 9 -8 154 -32 198 -34 25 -1 31 3 33 24 2 14 39 232 83 485 44 253 81 467 82 475 2 15 -57 31 -170 46 -50 6 -53 5 -63 -21z"/>
 </g>
<g id="layer2" fill="#ed641a" stroke="none">
 <path d="M0 1500 l0 -1500 1500 0 1500 0 0 1500 0 1500 -1500 0 -1500 0 0 -1500z m2150 745 l0 -515 -75 0 -75 0 -2 438 -3 437 -665 0 -665 0 -3 -437 -2 -438 -75 0 -75 0 0 515 0 515 820 0 820 0 0 -515z m-340 75 l0 -100 -495 0 -495 0 0 100 0 100 495 0 495 0 0 -100z m14 -272 c3 -50 4 -93 2 -95 -4 -5 -18 -6 -585 -59 -210 -19 -385 -33 -388 -31 -2 3 -5 47 -6 98 l-2 94 440 41 c242 23 461 42 486 43 l46 1 7 -92z m65 -363 c1 -18 -43 -32 -461 -144 -255 -68 -467 -124 -472 -125 -9 -1 -54 142 -55 175 -1 11 14 19 52 28 28 6 241 63 472 125 l420 113 22 -76 c12 -42 22 -85 22 -96z m85 -181 c26 -47 46 -86 45 -88 -2 -1 -20 -11 -39 -22 -19 -12 -208 -123 -419 -248 -211 -125 -387 -223 -391 -219 -4 4 -28 43 -53 85 l-46 77 361 213 c199 117 389 229 422 250 34 20 63 37 66 37 3 1 27 -38 54 -85z m181 -184 c41 -28 75 -53 75 -56 0 -7 -514 -765 -539 -795 -16 -19 -18 -18 -93 33 -43 29 -77 57 -78 61 0 6 257 386 520 769 14 21 29 37 33 38 4 0 41 -23 82 -50z m243 -94 c40 -7 75 -16 79 -19 3 -4 -32 -223 -78 -487 l-84 -481 -25 5 c-14 3 -58 11 -97 18 -65 10 -72 14 -68 32 3 12 39 219 80 461 42 242 78 450 81 463 5 25 12 26 112 8z"/>
 </g>

</svg>